<?xml version="1.0" encoding="UTF-8"?><svg id="b" xmlns="http://www.w3.org/2000/svg" width="264" height="136.5" viewBox="0 0 264 136.5"><defs><style>.d{fill:#5c9fff;}.d,.e{stroke-width:0px;}.e{fill:#fff;}</style></defs><g id="c"><path class="d" d="m248.97,0H15.03C6.76,0,0,6.75,0,15v90c0,8.25,6.76,15,15.03,15h109.46l8.27,16.5,8.46-16.5h107.76c8.27,0,15.03-6.75,15.03-15V15c0-8.25-6.76-15-15.03-15Z"/><path class="e" d="m45.99,35.72c-1.05.78-2.43,1.6-3.59,2.18,1.21.94,2.73,1.6,4.55,1.97-.26.22-.59.72-.73,1.04-3.66-.85-6.09-2.85-7.43-5.97h-2.27v4.23c1.33-.22,2.78-.46,4.19-.7l.05,1.06c-2.54.45-5.27.91-7.17,1.23l-.3-1.09c.57-.08,1.28-.19,2.03-.3v-4.42h-2.8v-1.07h2.8v-6.98h9.84v1.01h-8.63v1.33h8.15v.98h-8.15v1.33h8.15v.98h-8.15v1.36h10.18v1.07h-6.69c.42.86.96,1.63,1.65,2.31,1.13-.62,2.54-1.47,3.37-2.16l.97.64Z"/><path class="e" d="m56.99,37h-7.8v-1.07h1.55v-6.5h-1.34v-1.07h1.34v-1.94h1.09v1.94h2.89v-1.94h1.1v1.94h1.17v1.07h-1.17v6.5h1.17v1.07Zm-4.46.64c-.58,1.23-1.49,2.45-2.36,3.23-.22-.19-.67-.53-.96-.69.88-.72,1.71-1.79,2.19-2.85l1.13.3Zm-.7-8.21v1.41h2.89v-1.41h-2.89Zm0,3.94h2.89v-1.57h-2.89v1.57Zm0,2.56h2.89v-1.6h-2.89v1.6Zm2.76,1.41c.64.72,1.37,1.71,1.68,2.37l-.96.56c-.29-.64-1.01-1.68-1.65-2.43l.93-.5Zm8.71,2c0,.7-.18,1.06-.61,1.25-.46.19-1.2.22-2.38.22-.05-.34-.21-.85-.37-1.15.85.02,1.65.02,1.87,0,.24,0,.34-.08.34-.34v-3.84h-3.37c-.16,1.9-.56,3.94-1.52,5.47-.19-.22-.67-.59-.94-.7,1.33-2.11,1.45-5.14,1.45-7.43v-5.78h5.53v12.29Zm-1.15-4.93v-2.66h-3.26v1.07c0,.5-.02,1.04-.03,1.58h3.29Zm-3.26-6.27v2.54h3.26v-2.54h-3.26Z"/><path class="e" d="m70.64,31.86c.94,0,1.69.75,1.69,1.7s-.75,1.7-1.69,1.7-1.69-.75-1.69-1.7.75-1.7,1.69-1.7Z"/><path class="e" d="m79.09,30.82c1.34-.42,4.44-1.57,6.76-1.57,2.62,0,4.71,1.52,4.71,4.18,0,3.81-3.77,5.65-8.66,5.92l-.56-1.33c4.14-.11,7.81-1.36,7.81-4.61,0-1.66-1.2-2.96-3.34-2.96-2.6,0-6.63,1.74-7.88,2.24l-.59-1.41c.57-.11,1.15-.29,1.74-.46Z"/><path class="e" d="m106.58,37.05c-.48-.42-1.04-.85-1.65-1.25-.66,2.06-1.87,3.57-4.17,4.72l-1.05-.88c2.51-1.06,3.63-2.75,4.14-4.48-1.33-.72-2.86-1.28-4.51-1.42-.61,1.39-1.39,3.25-2,4.13-.56.8-1.18,1.1-2,1.1-1.17,0-2.06-.85-2.06-2.18,0-2.34,2.16-4.13,5.26-4.21.58-1.25,1.15-2.61,1.65-3.6-.62.05-2.54.13-3.27.18-.35.02-.8.05-1.17.11l-.06-1.34c.4.05.86.06,1.2.06.83,0,2.91-.11,3.58-.16.29-.03.56-.1.77-.18l.81.66c-.16.18-.3.32-.42.53-.45.7-1.12,2.32-1.79,3.81,1.58.16,3.04.66,4.3,1.26.06-.4.1-.8.13-1.18.03-.43.05-.94.02-1.46l1.31.14c-.06,1.14-.16,2.15-.34,3.07.75.42,1.39.85,1.9,1.22l-.58,1.34Zm-8.56-3.33c-2.27.19-3.56,1.55-3.56,2.9,0,.67.45,1.06.91,1.06.37,0,.62-.13.96-.56.56-.72,1.15-2.16,1.69-3.39Z"/><path class="e" d="m117.05,30.21c-1.04.24-2.17.42-3.28.54-.14.69-.32,1.42-.5,2.1-.58,2.27-1.65,5.54-2.48,7.27l-1.41-.46c.94-1.63,2.06-4.85,2.65-7.09.14-.53.27-1.1.4-1.68-.51.03-.99.05-1.44.05-.7,0-1.28-.03-1.84-.06l-.05-1.25c.75.1,1.33.11,1.9.11.53,0,1.09-.03,1.69-.06.11-.58.19-1.07.24-1.39.05-.45.08-.98.05-1.31l1.55.13c-.11.35-.22.94-.29,1.26l-.24,1.17c1.02-.13,2.06-.32,3.02-.58v1.26Zm-.62,5.55c-.14.53-.22,1.02-.22,1.42,0,.75.35,1.47,2.6,1.47,1.02,0,2.12-.13,3.08-.3l-.05,1.3c-.85.11-1.9.21-3.05.21-2.49,0-3.8-.77-3.8-2.34,0-.61.1-1.2.24-1.87l1.2.11Zm-.4-3.86c.83-.08,1.87-.13,2.89-.13.91,0,1.89.03,2.73.13l-.03,1.22c-.8-.1-1.74-.19-2.67-.19-.99,0-1.95.06-2.92.18v-1.2Z"/><path class="e" d="m125.56,28.93c1.04-.1,4.03-.4,6.93-.64,1.73-.14,3.21-.22,4.27-.27v1.28c-.89,0-2.28.02-3.1.26-2.25.72-3.61,3.12-3.61,4.99,0,3.1,2.88,4.08,5.45,4.18l-.46,1.33c-2.92-.11-6.26-1.68-6.26-5.22,0-2.48,1.49-4.48,2.94-5.35-1.39.16-5.7.58-7.41.93l-.14-1.41c.61-.02,1.1-.05,1.41-.08Z"/><path class="e" d="m141.2,31.86c.94,0,1.69.75,1.69,1.7s-.75,1.7-1.69,1.7-1.69-.75-1.69-1.7.75-1.7,1.69-1.7Z"/><path class="e" d="m153.79,26.93c-1.15,2.69-3,5.07-5.02,6.58-.21-.26-.72-.7-1.01-.93,2.01-1.34,3.79-3.55,4.78-6l1.25.35Zm6.49,5.33s-.02.42-.03.58c-.22,4.91-.46,6.75-1.01,7.36-.34.4-.67.5-1.23.56-.53.05-1.52.02-2.51-.03-.03-.35-.18-.83-.4-1.18,1.04.1,2.03.11,2.4.11.34,0,.53-.03.67-.21.42-.4.64-2,.83-6.03h-4.12c-.42,3.15-1.44,6.05-5.5,7.52-.16-.3-.5-.78-.77-1.04,3.75-1.25,4.63-3.79,5-6.48h-3.26v-1.15h9.92Zm-2.22-5.71c1.04,2.15,3.08,4.55,4.81,5.76-.3.26-.75.72-.97,1.06-1.76-1.42-3.77-4-4.95-6.37l1.12-.45Z"/><path class="e" d="m172.82,32.1h-7.75v-1.02h1.85v-1.89h-1.6v-1.01h1.6v-1.79h1.09v1.79h2.06v-1.79h1.1v1.79h1.61v1.01h-1.61v1.89h1.65v1.02Zm-.93,7.52c0,.58-.11.86-.51,1.04-.38.18-1.02.18-2,.18-.03-.29-.19-.7-.34-.99.7.03,1.31.02,1.49.02.19-.02.26-.08.26-.26v-1.42h-3.48v2.69h-1.1v-7.71h5.69v6.47Zm-4.58-5.52v1.12h3.48v-1.12h-3.48Zm3.48,3.15v-1.12h-3.48v1.12h3.48Zm-2.78-6.18h2.06v-1.89h-2.06v1.89Zm10.58-.75c-.35,2.56-.93,4.69-1.85,6.42.78,1.36,1.79,2.45,3.05,3.12-.29.24-.66.69-.85,1.02-1.18-.72-2.12-1.76-2.88-3.04-.86,1.23-1.98,2.24-3.4,3.06-.11-.27-.46-.78-.7-1.02,1.53-.78,2.67-1.84,3.48-3.19-.59-1.3-1.04-2.82-1.41-4.43-.29.72-.64,1.39-1.02,1.98-.16-.26-.58-.75-.81-.98,1.13-1.7,1.82-4.34,2.22-7.03l1.15.18c-.16.94-.34,1.89-.56,2.79h4.65v1.12h-1.07Zm-3.91.11c.32,1.82.77,3.55,1.44,5.04.64-1.46,1.05-3.17,1.33-5.15h-2.73l-.03.11Z"/><path class="e" d="m187.26,34.25c-.58.21-1.17.42-1.76.62v4.59c0,.66-.16.99-.59,1.18-.4.18-1.04.21-2.11.19-.03-.29-.21-.78-.35-1.07.72.02,1.37.02,1.58,0,.21,0,.29-.06.29-.3v-4.19c-.75.26-1.47.51-2.11.72l-.4-1.22c.69-.18,1.55-.43,2.51-.72v-3.55h-2.3v-1.12h2.3v-3.12h1.18v3.12h1.76v1.12h-1.76v3.2l1.63-.5.13,1.04Zm8.29-.85c-.59,1.95-1.63,3.47-2.94,4.66,1.15.82,2.54,1.41,4.14,1.74-.26.24-.61.74-.78,1.06-1.68-.42-3.12-1.1-4.31-2.03-1.34.96-2.89,1.62-4.52,2.05-.13-.3-.4-.82-.64-1.06,1.53-.35,3-.94,4.27-1.79-.97-.99-1.74-2.18-2.3-3.55l.86-.26h-1.39v-1.09h6.63l.22-.05.77.32Zm-5.56-4.9c0,1.39-.4,3.14-2.16,4.31-.16-.24-.58-.7-.8-.85,1.58-1.01,1.84-2.37,1.84-3.47v-1.6h5.24v3.81c0,.37.05.43.34.43h.86c.3,0,.37-.24.4-1.89.22.19.69.37.99.45-.08,1.94-.37,2.43-1.26,2.43h-1.17c-1.01,0-1.29-.29-1.29-1.41v-2.71h-2.99v.5Zm-.43,5.71c.48,1.18,1.2,2.23,2.14,3.09.96-.83,1.76-1.87,2.28-3.09h-4.43Z"/><path class="e" d="m203.56,30.5c-1.44.46-2.94.93-4.14,1.31l-.46-1.04c1.15-.27,2.83-.75,4.46-1.2l.14.93Zm1.26,8.48c-1.29.75-3.29,1.49-4.87,1.92-.21-.22-.61-.69-.88-.9,1.63-.34,3.55-.9,4.68-1.54l1.07.51Zm-1.74-10.23c-.73-.43-2.2-.99-3.34-1.34l.53-.82c1.1.3,2.57.83,3.34,1.23l-.53.93Zm-2,3.14h10.34v6.42h-10.34v-6.42Zm1.15,1.87h8v-1.07h-8v1.07Zm0,1.87h8v-1.1h-8v1.1Zm0,1.89h8v-1.12h-8v1.12Zm3.69-9.22c-.4.5-.86.96-1.42,1.39-.22-.22-.61-.48-.89-.59,1.2-.83,2-1.9,2.41-2.87l1.07.18c-.16.34-.34.66-.54.99h5.46l.19-.05.8.24c-.45.82-1.04,1.71-1.6,2.27l-.96-.34c.34-.32.69-.77.97-1.23h-2.56c.35,1.23,1.25,2.38,4.52,2.88-.22.22-.5.67-.61.96-2.72-.48-3.88-1.5-4.47-2.66-.62,1.18-1.81,1.94-4.07,2.38-.1-.26-.37-.64-.56-.85,2.6-.46,3.56-1.26,3.95-2.72h-1.69Zm2.52,10.21c1.73.56,3.63,1.25,4.79,1.78l-1.31.59c-.99-.51-2.72-1.18-4.46-1.76l.97-.61Z"/><path class="e" d="m218.52,27.64c-.1.27-.24.78-.3,1.07-.3,1.46-.77,4.29-.77,6.07,0,.77.03,1.41.13,2.18.27-.72.62-1.65.88-2.27l.69.51c-.4,1.12-.97,2.8-1.12,3.55-.05.22-.08.53-.08.7l.05.56-1.15.08c-.32-1.12-.58-2.95-.58-5.09,0-2.34.51-5.06.7-6.35.05-.37.11-.78.11-1.12l1.44.11Zm3.61,7.68c-.14.58-.21,1.02-.21,1.46,0,.72.48,1.42,2.65,1.42,1.42,0,2.64-.13,3.91-.42l.02,1.34c-.97.19-2.3.32-3.95.32-2.65,0-3.83-.88-3.83-2.37,0-.58.11-1.2.26-1.87l1.15.11Zm-.62-6.47c1.73.29,4.92.22,6.5,0v1.31c-1.69.18-4.76.18-6.49,0l-.02-1.31Z"/><path class="e" d="m44.82,62.86c.75,1.18,2.16,1.73,4.03,1.79,1.76.08,5.43.03,7.35-.1-.14.27-.34.82-.38,1.17-1.79.08-5.16.11-6.95.03-2.09-.08-3.53-.64-4.52-1.89-.7.69-1.44,1.36-2.22,2.05l-.62-1.14c.67-.5,1.49-1.17,2.2-1.84v-4.1h-2.03v-1.12h3.15v5.14Zm-.48-7.67c-.48-.8-1.55-1.9-2.52-2.67l.91-.67c.97.74,2.08,1.82,2.57,2.61l-.96.74Zm3.93-1.44h-2.54v-.96h4.41v-1.34h1.17v1.34h4.63v.96h-2.46l.42.11c-.29.54-.59,1.1-.85,1.54h2.33v7.04c0,.58-.11.88-.53,1.07-.42.16-1.07.18-2.01.18-.05-.29-.21-.74-.37-1.02.72.03,1.34.03,1.55.02.19,0,.24-.06.24-.24v-6.1h-3.04v1.07h2.4v.82h-2.4v1.15h1.71v2.88h-3.4v.61h-.86v-3.49h1.65v-1.15h-2.38v-.82h2.38v-1.07h-2.92v7.36h-1.09v-8.31h2.08c-.13-.46-.4-1.06-.67-1.5l.56-.14Zm3.69,1.6c.26-.43.56-1.09.75-1.6h-3.93c.3.48.57,1.14.67,1.57l-.29.08h2.97l-.18-.05Zm.1,4.79h-2.52v1.38h2.52v-1.38Z"/><path class="e" d="m61.6,52.42c-.08.51-.13,1.07-.16,1.58-.06,1.79-.19,5.54-.19,7.91,0,1.74,1.12,2.35,2.59,2.35,2.91,0,4.55-1.63,5.69-3.28l.88,1.1c-1.07,1.5-3.12,3.49-6.6,3.49-2.27,0-3.83-.96-3.83-3.54,0-2.35.16-6.35.16-8.04,0-.58-.05-1.14-.14-1.6l1.61.02Z"/><path class="e" d="m80.93,55.41c-1.04.24-2.17.42-3.28.54-.14.69-.32,1.42-.5,2.1-.58,2.27-1.65,5.54-2.48,7.27l-1.41-.46c.94-1.63,2.06-4.85,2.65-7.09.14-.53.27-1.1.4-1.68-.51.03-.99.05-1.44.05-.7,0-1.28-.03-1.84-.06l-.05-1.25c.75.1,1.33.11,1.9.11.53,0,1.09-.03,1.69-.06.11-.58.19-1.07.24-1.39.05-.45.08-.98.05-1.31l1.55.13c-.11.35-.22.94-.29,1.26l-.24,1.17c1.02-.13,2.06-.32,3.02-.58v1.26Zm-.62,5.55c-.14.53-.22,1.02-.22,1.42,0,.75.35,1.47,2.6,1.47,1.02,0,2.12-.13,3.08-.3l-.05,1.3c-.85.11-1.9.21-3.05.21-2.49,0-3.8-.77-3.8-2.34,0-.61.1-1.2.24-1.87l1.2.11Zm-.4-3.86c.83-.08,1.87-.13,2.89-.13.91,0,1.89.03,2.73.13l-.03,1.22c-.8-.1-1.74-.19-2.67-.19-.99,0-1.95.06-2.92.18v-1.2Z"/><path class="e" d="m93.55,59.45c-.58.21-1.17.42-1.76.62v4.59c0,.66-.16.99-.59,1.18-.4.18-1.04.21-2.11.19-.03-.29-.21-.78-.35-1.07.72.02,1.37.02,1.58,0,.21,0,.29-.06.29-.3v-4.19c-.75.26-1.47.51-2.11.72l-.4-1.22c.69-.18,1.55-.43,2.51-.72v-3.55h-2.3v-1.12h2.3v-3.12h1.18v3.12h1.76v1.12h-1.76v3.2l1.63-.5.13,1.04Zm8.29-.85c-.59,1.95-1.63,3.47-2.94,4.66,1.15.82,2.54,1.41,4.14,1.74-.26.24-.61.74-.78,1.06-1.68-.42-3.12-1.1-4.31-2.03-1.34.96-2.89,1.62-4.52,2.05-.13-.3-.4-.82-.64-1.06,1.53-.35,3-.94,4.27-1.79-.97-.99-1.74-2.18-2.3-3.55l.86-.26h-1.39v-1.09h6.63l.22-.05.77.32Zm-5.56-4.9c0,1.39-.4,3.14-2.16,4.31-.16-.24-.58-.7-.8-.85,1.58-1.01,1.84-2.37,1.84-3.47v-1.6h5.24v3.81c0,.37.05.43.34.43h.86c.3,0,.37-.24.4-1.89.22.19.69.37.99.45-.08,1.94-.37,2.43-1.26,2.43h-1.17c-1.01,0-1.29-.29-1.29-1.41v-2.71h-2.99v.5Zm-.43,5.71c.48,1.18,1.2,2.23,2.14,3.09.96-.83,1.76-1.87,2.28-3.09h-4.43Z"/><path class="e" d="m109.85,55.7c-1.44.46-2.94.93-4.14,1.31l-.46-1.04c1.15-.27,2.83-.75,4.46-1.2l.14.93Zm1.26,8.48c-1.29.75-3.29,1.49-4.87,1.92-.21-.22-.61-.69-.88-.9,1.63-.34,3.55-.9,4.68-1.54l1.07.51Zm-1.74-10.23c-.73-.43-2.2-.99-3.34-1.34l.53-.82c1.1.3,2.57.83,3.34,1.23l-.53.93Zm-2,3.14h10.34v6.42h-10.34v-6.42Zm1.15,1.87h8v-1.07h-8v1.07Zm0,1.87h8v-1.1h-8v1.1Zm0,1.89h8v-1.12h-8v1.12Zm3.69-9.22c-.4.5-.86.96-1.42,1.39-.22-.22-.61-.48-.89-.59,1.2-.83,2-1.9,2.41-2.87l1.07.18c-.16.34-.34.66-.54.99h5.46l.19-.05.8.24c-.45.82-1.04,1.71-1.6,2.27l-.96-.34c.34-.32.69-.77.97-1.23h-2.56c.35,1.23,1.25,2.38,4.52,2.88-.22.22-.5.67-.61.96-2.72-.48-3.88-1.5-4.47-2.66-.62,1.18-1.81,1.94-4.07,2.38-.1-.26-.37-.64-.56-.85,2.6-.46,3.56-1.26,3.95-2.72h-1.69Zm2.52,10.21c1.73.56,3.63,1.25,4.79,1.78l-1.31.59c-.99-.51-2.72-1.18-4.46-1.76l.97-.61Z"/><path class="e" d="m126.66,51.83c-.45,1.12-1.01,2.26-1.63,3.3v10.88h-1.12v-9.17c-.58.8-1.17,1.5-1.77,2.11-.11-.26-.46-.9-.67-1.15,1.61-1.52,3.16-3.89,4.09-6.31l1.1.34Zm9.75,2.58v.99h-10.32v-.99h10.32Zm-9.19,6.61h8.12v4.99h-1.18v-.7h-5.78v.75h-1.15v-5.04Zm7.97-3.43h-7.8v-.98h7.8v.98Zm-7.8,1.23h7.76v.96h-7.76v-.96Zm7.51-5.63h-7.32v-.98h7.32v.98Zm-6.53,8.79v2.35h5.78v-2.35h-5.78Z"/><path class="e" d="m145,55.08h-6.29v-.98h6.29v.98Zm-.64,10.07h-3.87v.74h-1.05v-5.36h4.92v4.63Zm-4.9-8.88h4.95v.94h-4.95v-.94Zm0,2.11h4.95v.96h-4.95v-.96Zm4.95-5.41h-4.87v-.96h4.87v.96Zm-3.91,8.53v2.69h2.8v-2.69h-2.8Zm11.22,3.27c.5,0,.59-.5.66-2.48.29.22.75.45,1.09.51-.13,2.3-.43,3.09-1.66,3.09h-2.09c-1.29,0-1.66-.4-1.66-1.94v-4.71l-3.07.48-.18-1.12,3.24-.5v-4.21c-.86.19-1.73.35-2.54.48-.05-.27-.24-.72-.38-1.01,2.33-.4,5.03-1.04,6.53-1.73l.99.93c-.96.4-2.16.75-3.42,1.06v4.29l3.96-.61.21,1.12-4.17.64v4.9c0,.67.11.8.64.8h1.85Z"/><path class="e" d="m161.45,52.45c-.06.3-.14.62-.19.94-.1.46-.24,1.39-.42,2.24.73-.06,1.39-.11,1.77-.11,1.42,0,2.57.56,2.57,2.71,0,1.89-.26,4.39-.91,5.71-.51,1.06-1.29,1.31-2.32,1.31-.61,0-1.36-.11-1.87-.22l-.21-1.36c.67.22,1.5.35,1.95.35.58,0,1.04-.13,1.37-.82.51-1.06.75-3.12.75-4.83,0-1.44-.66-1.7-1.68-1.7-.38,0-1.01.05-1.69.11-.58,2.27-1.66,5.84-3.32,8.5l-1.29-.53c1.61-2.16,2.78-5.73,3.32-7.84-.83.08-1.58.16-2,.21-.38.05-1.02.11-1.42.19l-.13-1.39c.5.02.89.02,1.41,0,.53-.02,1.44-.1,2.4-.18.22-1.14.42-2.37.4-3.44l1.5.14Zm5.43,1.81c.99,1.28,2.36,4.16,2.89,5.63l-1.23.61c-.48-1.63-1.73-4.4-2.83-5.7l1.17-.54Zm.66.26c-.32-.64-.86-1.62-1.29-2.22l.85-.35c.4.56.99,1.55,1.33,2.19l-.88.38Zm1.81-.66c-.35-.69-.88-1.6-1.33-2.21l.85-.35c.42.58,1.04,1.58,1.34,2.18l-.86.38Z"/><path class="e" d="m178.27,55.72c-.32,1.87-.75,3.54-1.36,4.98.75.99,1.37,1.95,1.77,2.74l-.96.82c-.32-.67-.81-1.49-1.39-2.34-.89,1.65-2.06,2.99-3.61,4.02-.14-.22-.58-.7-.83-.91,1.66-.99,2.84-2.39,3.71-4.15-.88-1.18-1.89-2.4-2.83-3.41l.83-.67c.83.86,1.71,1.87,2.51,2.87.45-1.22.78-2.59,1.01-4.1l1.15.16Zm1.39-.53h-7.38v-1.1h3.04v-2.61h1.13v2.61h3.21v1.1Zm6.93,1.23h-1.9v8.02c0,.8-.19,1.15-.67,1.38-.48.19-1.28.22-2.65.22-.05-.32-.21-.88-.38-1.23,1.01.03,1.89.03,2.16.02.27-.02.38-.1.38-.38v-8.02h-4.36v-1.14h4.36v-3.84h1.17v3.84h1.9v1.14Zm-5.51,5.7c-.26-.94-.97-2.48-1.73-3.59l.97-.45c.77,1.09,1.52,2.56,1.76,3.52l-1.01.51Z"/><path class="e" d="m202.9,59.19c-1.1.8-2.59,1.7-3.79,2.31,1.07,1.42,2.51,2.51,4.3,3.09-.26.24-.61.67-.75.99-3.15-1.2-5.16-3.75-6.23-7.23-.5.32-1.05.61-1.65.88,3.24,2.19,3.45,5.43,1.92,6.43-.51.34-.96.43-1.58.45-.35,0-.83-.02-1.29-.03-.03-.3-.14-.78-.34-1.07.54.06,1.07.06,1.44.06s.72-.03,1.02-.26c.54-.37.72-1.26.34-2.3-1.76,1.39-4.36,2.61-6.52,3.23-.16-.26-.46-.66-.7-.9,2.35-.56,5.18-1.84,6.77-3.17-.16-.26-.37-.53-.61-.78-1.44.96-3.53,1.81-5.22,2.24-.14-.26-.46-.62-.66-.85,1.74-.35,3.91-1.12,5.26-1.98-.26-.21-.54-.43-.86-.64-1.26.51-2.62.91-3.83,1.22-.14-.21-.43-.67-.64-.88,1.82-.35,3.87-.94,5.43-1.68h-3.95v-2.69c-.3.21-.62.42-.94.61-.18-.27-.54-.64-.8-.8,2.06-1.17,3.63-2.74,4.47-4.03l1.23.26c-.21.29-.43.59-.67.88h3.5l.19-.06.8.51c-.32.54-.75,1.15-1.2,1.66h4.36v3.67h-4.22c.29.88.66,1.7,1.12,2.43,1.13-.64,2.51-1.54,3.35-2.24l.94.69Zm-11.04-1.79h3.66v-1.82h-3.66v1.82Zm1.41-3.95c-.38.4-.8.82-1.26,1.2h3.95c.34-.35.67-.78.93-1.2h-3.61Zm7.27,2.13h-3.87v1.82h3.87v-1.82Z"/><path class="e" d="m210.5,63.37c0,1.34-1.09,2.45-2.44,2.45s-2.43-1.1-2.43-2.45,1.1-2.43,2.43-2.43,2.44,1.09,2.44,2.43Zm-.83,0c0-.88-.7-1.62-1.61-1.62s-1.61.74-1.61,1.62.73,1.63,1.61,1.63,1.61-.72,1.61-1.63Z"/><path class="e" d="m17.45,87.43c-.3-.46-.83-1.14-1.36-1.75v5.75h-1.87v-5.22c-.51.54-1.02,1.01-1.53,1.41-.18-.46-.67-1.39-.97-1.73,1.57-1.09,3.12-2.96,4.09-4.87h-3.64v-1.71h2.06v-2.82h1.87v2.82h.69l.3-.08,1.07.7c-.48,1.31-1.17,2.61-1.97,3.79.13.11.27.24.43.38.42-.54.88-1.28,1.15-1.78l1.21,1.01c-.56.54-1.05,1.12-1.49,1.57.48.45.91.88,1.09,1.06l-1.13,1.46Zm9.07-9.72s0,.7-.02.96c-.14,8-.29,10.79-.89,11.65-.43.64-.83.85-1.44.96-.58.11-1.45.1-2.32.08-.03-.56-.26-1.41-.59-1.97.83.06,1.58.06,1.97.06.26,0,.42-.06.59-.3.45-.53.62-3.11.74-9.65h-2.32c-.13,4.63-.56,9.24-4.12,11.94-.32-.51-.91-1.14-1.41-1.5,3.27-2.3,3.51-6.35,3.59-10.44h-2.3v-1.79h8.52Z"/><path class="e" d="m38.54,79.75c2.48.56,4.15,2.56,4.15,5.35,0,3.36-2.4,5.28-5.7,5.78l-1.21-1.82c3.48-.3,4.84-2.08,4.84-4.07,0-1.76-.96-3.06-2.56-3.49-.54,1.84-1.23,3.67-2.14,5.04.29.34.58.66.86.94l-1.58,1.26c-.19-.21-.38-.42-.54-.62-1.07,1.15-1.95,1.7-3.12,1.7-1.31,0-2.52-1.12-2.52-3.17,0-1.82.91-3.75,2.33-5.01-.14-.42-.29-.85-.42-1.28-.18-.58-.37-1.07-.64-1.65l2.08-.64c.1.51.22,1.04.35,1.5.08.3.18.64.29.98,1.2-.62,2.36-.9,3.58-.94.06-.27.11-.53.16-.77.08-.46.13-1.14.11-1.5l2.19.21c-.13.43-.27,1.2-.37,1.6l-.14.61Zm-5.03,6.8c-.5-.77-1.01-1.84-1.47-3.04-.73.88-1.15,2-1.15,2.98,0,.77.32,1.26.89,1.26s1.15-.48,1.73-1.2Zm.08-4.27c.35.98.75,1.89,1.12,2.51.56-1.01,1.04-2.23,1.41-3.39-.96.11-1.79.43-2.52.88Z"/><path class="e" d="m46.27,78.98c1.31-.13,3.93-.35,6.82-.61,1.63-.13,3.37-.22,4.47-.27l.02,2.05c-.85,0-2.2.02-3.05.21-1.9.51-3.34,2.56-3.34,4.43,0,2.61,2.44,3.54,5.11,3.68l-.73,2.19c-3.32-.22-6.45-2.02-6.45-5.44,0-2.29,1.28-4.08,2.33-4.88-1.36.14-4.7.5-6.53.9l-.19-2.18c.62-.02,1.23-.05,1.55-.08Z"/><path class="e" d="m66.08,88.83c.61-.08,1.05-.16,1.47-.26,2.03-.48,3.59-1.94,3.59-4.24s-1.18-3.83-3.31-4.19c-.22,1.34-.5,2.82-.94,4.31-.94,3.2-2.32,5.15-4.04,5.15s-3.23-1.94-3.23-4.61c0-3.65,3.18-6.79,7.29-6.79s6.39,2.74,6.39,6.19-2.04,5.7-6.04,6.31l-1.18-1.87Zm-1.23-4.8c.37-1.17.66-2.53.85-3.84-2.62.54-4.01,2.85-4.01,4.59,0,1.6.64,2.38,1.23,2.38.66,0,1.29-.99,1.93-3.14Z"/><path class="e" d="m82.92,76.85c-.02.26-.03.58-.05.91.13,2.21.93,9.11,6.89,11.91-.59.45-1.17,1.1-1.47,1.62-3.61-1.79-5.4-5.09-6.29-8.04-.86,2.88-2.54,5.97-5.91,8.04-.34-.5-.96-1.07-1.6-1.52,6.37-3.54,6.15-10.8,6.26-12.92h2.17Z"/><path class="e" d="m90.38,79.01c1.33-.11,3.95-.35,6.84-.61,1.63-.13,3.35-.22,4.47-.27l.02,2.05c-.85,0-2.2.02-3.05.21-1.92.51-3.34,2.56-3.34,4.43,0,2.61,2.43,3.55,5.11,3.68l-.74,2.19c-3.32-.21-6.45-2-6.45-5.44,0-2.29,1.26-4.08,2.33-4.88-1.37.14-4.7.5-6.53.9l-.21-2.18c.64-.02,1.25-.05,1.55-.08Zm10.38,4.88l-1.21.54c-.4-.88-.74-1.5-1.25-2.23l1.18-.5c.38.58.97,1.54,1.28,2.18Zm1.85-.78l-1.2.58c-.43-.86-.8-1.46-1.31-2.16l1.17-.54c.4.56,1.01,1.5,1.34,2.13Z"/><path class="e" d="m116.59,83.01c1.05,1.34,1.53,2.46,1.53,3.81,0,2.38-2.14,4.11-5.61,4.11-2.49,0-4.25-1.09-4.25-3.73,0-.38.05-.94.11-1.6-1.15-.11-2.19-.29-3.04-.53l.11-1.92c1.02.35,2.09.53,3.12.62.1-.7.18-1.44.27-2.16-1.1-.11-2.22-.3-3.15-.56l.11-1.84c.91.3,2.09.5,3.24.59.06-.48.1-.91.13-1.26.03-.43.06-.88.03-1.41l2.22.13c-.13.58-.21.99-.27,1.41-.05.27-.1.69-.18,1.2,1.13-.02,2.16-.08,2.91-.19l-.06,1.89c-.94.1-1.81.14-3.08.14-.1.7-.19,1.46-.27,2.16h.11c.97,0,2.14-.08,3.18-.19l-.05,1.89c-.89.08-1.82.14-2.8.14h-.64c-.03.46-.06.86-.06,1.15,0,1.3.8,2.02,2.36,2.02,2.2,0,3.42-1.01,3.42-2.32,0-1.07-.61-2.1-1.63-3.07l2.22-.48Z"/><path class="e" d="m124.74,85.53v3.84c0,.94-.18,1.41-.69,1.7-.54.29-1.31.34-2.43.34-.06-.48-.3-1.25-.53-1.74.61.03,1.28.03,1.49.03.21-.02.29-.08.29-.3v-3.27c-.61.19-1.2.37-1.74.53l-.51-1.98c.62-.11,1.39-.29,2.25-.5v-2.96h-2.01v-1.76h2.01v-2.95h1.87v2.95h1.58v1.76h-1.58v2.5l1.33-.32.19,1.65-1.52.5Zm10.05-1.79c-.54,1.94-1.42,3.46-2.6,4.63,1.05.61,2.3,1.06,3.71,1.33-.43.42-.96,1.22-1.25,1.73-1.57-.37-2.91-.98-4.03-1.78-1.25.82-2.68,1.41-4.28,1.81-.19-.51-.62-1.31-.97-1.74,1.39-.27,2.67-.72,3.75-1.38-.77-.82-1.39-1.79-1.92-2.9l1.34-.42h-1.74v-1.71h.32c-.22-.38-.89-1.1-1.25-1.38,1.58-.91,1.77-2.16,1.77-3.22v-1.63h5.66v3.47c0,.43.05.48.24.48h.45c.24,0,.29-.22.32-1.62.35.27,1.07.56,1.55.67-.16,1.97-.56,2.51-1.66,2.51h-1.01c-1.31,0-1.71-.46-1.71-2.03v-1.73h-2.04c-.02,1.5-.46,3.31-2.27,4.47h6.02l.35-.06,1.25.5Zm-5.83,1.28c.42.83.97,1.57,1.66,2.21.69-.62,1.25-1.36,1.66-2.21h-3.32Z"/><path class="e" d="m147.95,88.75c1.63.58,3.47,1.34,4.55,1.87l-2.2.85c-.91-.53-2.54-1.28-4.15-1.89l1.44-.83h-4.67l1.45.64c-1.33.86-3.37,1.65-4.98,2.1-.34-.37-1.01-1.06-1.41-1.39,1.55-.29,3.29-.8,4.39-1.34h-2.35v-6.5h3.34c-.19-.38-.5-.85-.75-1.1l.02.06c-1.37.4-2.86.83-4.06,1.17l-.7-1.66c1.18-.22,2.89-.62,4.58-1.02l.16,1.44c2.54-.42,3.39-1.1,3.74-2.24h-1.15c-.37.45-.78.88-1.28,1.28-.34-.34-.99-.72-1.42-.9,1.15-.8,1.93-1.86,2.35-2.79l1.68.27c-.13.27-.26.53-.42.78h4.71l.29-.05,1.26.32c-.42.86-.99,1.82-1.52,2.42l-1.47-.46c.19-.24.42-.54.62-.88h-1.77c.35,1.04,1.25,1.9,4.47,2.29-.35.35-.77,1.09-.94,1.55-.38-.06-.73-.13-1.05-.21v6.23h-2.76Zm-6.04-9.43c-.73-.4-2.24-.98-3.34-1.3l.83-1.3c1.05.26,2.57.77,3.37,1.15l-.86,1.44Zm-.05,4.75h6.92v-.69h-6.92v.69Zm0,1.76h6.92v-.69h-6.92v.69Zm0,1.78h6.92v-.7h-6.92v.7Zm7.96-5.36c-1.23-.45-1.97-1.04-2.44-1.73-.56.75-1.45,1.31-2.91,1.73h5.35Z"/><path class="e" d="m161.46,87.74c.03-.46.05-1.2.06-1.89-1.17.64-1.81,1.26-1.81,2.05,0,.88.75,1.12,2.3,1.12,1.34,0,3.1-.18,4.49-.46l-.06,2.06c-1.05.13-2.99.26-4.47.26-2.48,0-4.35-.59-4.35-2.64s1.92-3.3,3.72-4.23c-.26-.4-.67-.54-1.1-.54-.89,0-1.87.51-2.48,1.09-.48.48-.93,1.06-1.47,1.74l-1.69-1.26c1.66-1.54,2.78-2.94,3.48-4.35h-.19c-.64,0-1.81-.03-2.67-.11v-1.86c.8.13,1.98.18,2.78.18h.77c.19-.72.3-1.36.32-1.81l2.08.18c-.08.38-.19.93-.38,1.57,1.49-.08,3.08-.21,4.47-.46l-.02,1.86c-1.52.22-3.47.35-5.16.42-.26.56-.58,1.14-.91,1.6.42-.21,1.26-.32,1.79-.32.96,0,1.76.42,2.11,1.23.81-.38,1.49-.66,2.14-.94.61-.27,1.17-.54,1.74-.82l.8,1.84c-.51.13-1.34.45-1.89.67-.7.27-1.6.62-2.57,1.07.02.88.05,2.05.06,2.77h-1.9Z"/><path class="e" d="m176.33,79.8c-.18,2.91-.61,5.23-1.33,7.09.7.58,1.31,1.15,1.71,1.66l-1.13,1.52c-.34-.45-.83-.98-1.41-1.5-.75,1.23-1.71,2.19-2.89,2.93-.27-.48-.78-1.17-1.15-1.52,1.05-.56,1.93-1.44,2.6-2.61-.32-.26-.66-.51-.97-.74l-.16.56-1.53-.83c.38-1.31.81-3.09,1.21-4.95h-1.17v-1.74h1.53c.22-1.1.43-2.19.59-3.19l1.79.18c-.18.94-.38,1.97-.61,3.01h1.45l.32-.05,1.13.18Zm-3.29,1.62c-.27,1.2-.56,2.38-.83,3.47.42.26.85.54,1.28.85.46-1.23.77-2.69.96-4.32h-1.41Zm4.51.27c.58-1.57,1.15-3.63,1.45-5.2l2.11.37c-.51,1.58-1.12,3.33-1.71,4.72.93-.05,1.9-.11,2.89-.16-.34-.59-.69-1.17-1.04-1.68l1.5-.77c.99,1.34,2.04,3.12,2.43,4.34l-1.65.88c-.1-.34-.22-.7-.4-1.1-2.38.19-4.89.37-6.71.5l-.19-1.82,1.31-.06Zm-.29,3.07h7.03v6.61h-1.89v-.56h-3.35v.62h-1.79v-6.67Zm1.79,1.71v2.62h3.35v-2.62h-3.35Z"/><path class="e" d="m196.5,79.75c2.48.56,4.15,2.56,4.15,5.35,0,3.36-2.4,5.28-5.7,5.78l-1.21-1.82c3.48-.3,4.84-2.08,4.84-4.07,0-1.76-.96-3.06-2.56-3.49-.54,1.84-1.23,3.67-2.14,5.04.29.34.58.66.86.94l-1.58,1.26c-.19-.21-.38-.42-.54-.62-1.07,1.15-1.95,1.7-3.12,1.7-1.31,0-2.52-1.12-2.52-3.17,0-1.82.91-3.75,2.33-5.01-.14-.42-.29-.85-.42-1.28-.18-.58-.37-1.07-.64-1.65l2.08-.64c.1.51.22,1.04.35,1.5.08.3.18.64.29.98,1.2-.62,2.36-.9,3.58-.94.06-.27.11-.53.16-.77.08-.46.13-1.14.11-1.5l2.19.21c-.13.43-.27,1.2-.37,1.6l-.14.61Zm-5.03,6.8c-.5-.77-1.01-1.84-1.47-3.04-.73.88-1.15,2-1.15,2.98,0,.77.32,1.26.89,1.26s1.15-.48,1.73-1.2Zm.08-4.27c.35.98.75,1.89,1.12,2.51.56-1.01,1.04-2.23,1.41-3.39-.96.11-1.79.43-2.52.88Z"/><path class="e" d="m206.39,78.2c.14.29.46.94.64,1.23.24.46.5.98.73,1.5,1.92-.85,3.83-1.6,5.45-1.6,2.46,0,3.93,1.49,3.93,3.33,0,2.22-1.52,3.62-3.95,3.62-.85,0-1.84-.22-2.43-.45l.05-1.98c.7.3,1.5.53,2.17.53,1.21,0,2.06-.64,2.06-1.78,0-.82-.69-1.47-1.89-1.47s-2.96.66-4.65,1.44l.45.98c.74,1.73,1.95,5.12,2.49,6.9l-2.19.56c-.5-1.98-1.31-4.69-2.12-6.58l-.42-.98c-1.13.56-2.14,1.1-2.81,1.41l-.93-2.03c.61-.14,1.31-.38,1.57-.51.46-.18.94-.38,1.42-.59-.24-.48-.46-.93-.7-1.34-.22-.4-.61-.98-.93-1.39l2.04-.78Zm4.11,1.47c-.56-.56-1.44-1.42-2.06-1.89l1.45-1.02c.58.43,1.55,1.26,2.11,1.82l-1.5,1.09Z"/><path class="e" d="m233.21,80.9c-.96-.05-2.44-.08-4.59-.08.02.8.02,1.66.02,2.35.4.59.59,1.36.59,2.19,0,2.06-1.21,4.69-5.08,5.78l-1.68-1.7c1.6-.34,2.99-.86,3.87-1.81-.22.05-.46.08-.72.08-1.23,0-2.73-.98-2.73-2.91,0-1.79,1.44-2.96,3.16-2.96.22,0,.43.02.62.05l-.02-1.06c-2.4.03-4.84.13-6.79.24l-.05-1.92c1.81,0,4.68-.08,6.81-.11,0-.19,0-.37-.02-.48-.03-.51-.08-1.12-.14-1.38h2.3c-.05.26-.1,1.1-.11,1.36,0,.13-.02.29-.02.48,1.6,0,3.75-.02,4.58,0l-.02,1.87Zm-7.21,5.06c.65,0,1.25-.5,1.04-1.87-.22-.38-.59-.56-1.04-.56-.61,0-1.21.42-1.21,1.25,0,.74.59,1.18,1.21,1.18Z"/><path class="e" d="m238.43,80.57c-.02,1.02,0,2.23.1,3.36.22,2.29.7,3.84,1.69,3.84.75,0,1.37-1.86,1.68-3.11l1.6,1.92c-1.05,2.75-2.04,3.73-3.32,3.73-1.73,0-3.24-1.57-3.69-5.83-.14-1.46-.18-3.3-.18-4.27,0-.45-.02-1.12-.11-1.6l2.43.03c-.11.56-.19,1.49-.19,1.92Zm10.99,6.51l-2.09.8c-.24-2.55-1.09-6.27-2.81-8.23l2.01-.67c1.5,1.84,2.72,5.67,2.89,8.1Z"/></g></svg>