<?xml version="1.0" encoding="UTF-8"?><svg id="b" xmlns="http://www.w3.org/2000/svg" width="264" height="136.5" viewBox="0 0 264 136.5"><defs><style>.d{fill:#9ac462;}.d,.e{stroke-width:0px;}.e{fill:#fff;}</style></defs><g id="c"><path class="d" d="m248.97,0H15.03C6.76,0,0,6.75,0,15v90c0,8.25,6.76,15,15.03,15h109.46l8.27,16.5,8.46-16.5h107.76c8.27,0,15.03-6.75,15.03-15V15c0-8.25-6.76-15-15.03-15Z"/><path class="e" d="m40.63,64.81c1.01-.31,3.33-1.18,5.07-1.18,1.96,0,3.53,1.14,3.53,3.13,0,2.85-2.83,4.23-6.49,4.44l-.42-1c3.1-.08,5.86-1.02,5.86-3.45,0-1.25-.9-2.22-2.5-2.22-1.95,0-4.97,1.31-5.91,1.68l-.44-1.06c.43-.08.86-.22,1.31-.35Z"/><path class="e" d="m61.26,69.48c-.36-.31-.78-.64-1.23-.94-.49,1.55-1.4,2.67-3.13,3.54l-.79-.66c1.88-.79,2.72-2.06,3.1-3.36-.99-.54-2.14-.96-3.38-1.07-.46,1.04-1.04,2.44-1.5,3.09-.42.6-.89.83-1.5.83-.87,0-1.55-.64-1.55-1.63,0-1.75,1.62-3.09,3.94-3.15.43-.94.86-1.96,1.23-2.7-.47.04-1.9.1-2.46.13-.26.01-.6.04-.87.08l-.05-1.01c.3.04.65.05.9.05.62,0,2.18-.08,2.68-.12.22-.02.42-.07.57-.13l.61.49c-.12.13-.23.24-.31.4-.34.53-.84,1.74-1.34,2.85,1.19.12,2.28.49,3.22.95.05-.3.07-.6.1-.89.02-.32.04-.71.01-1.09l.98.11c-.05.85-.12,1.61-.25,2.3.56.31,1.04.64,1.43.91l-.43,1.01Zm-6.42-2.49c-1.7.14-2.67,1.16-2.67,2.17,0,.5.34.79.68.79.28,0,.47-.1.72-.42.42-.54.86-1.62,1.27-2.54Z"/><path class="e" d="m69.14,64.36c-.78.18-1.63.31-2.46.41-.11.52-.24,1.07-.37,1.57-.43,1.7-1.23,4.15-1.86,5.44l-1.05-.35c.71-1.22,1.55-3.63,1.99-5.31.11-.4.2-.83.3-1.26-.38.02-.74.04-1.08.04-.53,0-.96-.02-1.38-.05l-.04-.94c.56.07.99.08,1.43.08.4,0,.81-.02,1.27-.05.08-.43.14-.8.18-1.04.04-.34.06-.73.04-.98l1.16.1c-.08.26-.17.71-.22.95l-.18.88c.77-.1,1.55-.24,2.26-.43v.95Zm-.47,4.16c-.11.4-.17.77-.17,1.07,0,.56.26,1.1,1.95,1.1.77,0,1.59-.1,2.31-.23l-.04.97c-.63.08-1.43.16-2.29.16-1.87,0-2.85-.58-2.85-1.75,0-.46.07-.9.18-1.4l.9.08Zm-.3-2.89c.62-.06,1.4-.1,2.17-.1.68,0,1.41.02,2.05.1l-.02.91c-.6-.07-1.31-.14-2-.14-.74,0-1.46.05-2.19.13v-.9Z"/><path class="e" d="m75.55,63.4c.78-.07,3.02-.3,5.2-.48,1.29-.11,2.41-.17,3.2-.2v.96c-.67,0-1.71.01-2.32.19-1.69.54-2.71,2.34-2.71,3.74,0,2.33,2.16,3.06,4.08,3.13l-.35,1c-2.19-.08-4.7-1.26-4.7-3.91,0-1.86,1.11-3.36,2.2-4.01-1.04.12-4.28.43-5.56.7l-.11-1.06c.46-.01.83-.04,1.05-.06Z"/><path class="e" d="m88.09,62.29c-.07.19-.17.59-.2.8-.24,1.1-.59,3.45-.59,4.79,0,.58.02,1.04.11,1.62.19-.54.47-1.25.67-1.73l.5.4c-.3.83-.72,2.04-.84,2.63-.04.16-.07.38-.06.53,0,.12.02.29.04.41l-.85.07c-.24-.85-.46-2.16-.46-3.77,0-1.74.4-4.01.54-4.99.05-.28.08-.59.08-.84l1.05.08Zm7.71,8.65c-.59-.55-1.17-1.02-1.78-1.36v.22c0,.98-.46,1.94-2.06,1.94s-2.47-.66-2.47-1.71c0-1,.89-1.81,2.44-1.81.4,0,.77.04,1.1.11-.04-.91-.11-2.05-.12-3.03-.38.01-.75.02-1.14.02-.67,0-1.29-.04-1.99-.07v-.91c.67.07,1.32.11,2.01.11.37,0,.74-.01,1.11-.02v-1.48c0-.2-.02-.52-.06-.72h1.09c-.04.23-.06.47-.07.71-.01.32-.02.88-.04,1.43.72-.05,1.41-.14,2.05-.28v.94c-.65.11-1.34.18-2.05.23.01,1.19.1,2.38.14,3.37.96.38,1.71,1,2.34,1.55l-.52.78Zm-2.73-1.76c-.38-.13-.79-.19-1.21-.19-.89,0-1.5.4-1.5.95,0,.59.57.92,1.43.92,1.01,0,1.29-.49,1.29-1.28,0-.11,0-.25-.01-.4Z"/><path class="e" d="m106.12,66.32c.81.9,1.22,1.73,1.22,2.75,0,1.76-1.59,2.84-3.93,2.84-1.62,0-2.92-.71-2.92-2.65,0-.32.04-.8.1-1.37-.89-.07-1.75-.2-2.47-.43l.05-.91c.78.28,1.67.42,2.5.48.08-.7.18-1.44.26-2.13-.85-.07-1.78-.22-2.53-.41l.05-.89c.74.24,1.7.38,2.59.43.06-.48.11-.91.13-1.24.02-.28.04-.54.01-.83l1.08.06c-.08.32-.12.56-.16.83-.04.3-.1.72-.16,1.21.9,0,1.7-.05,2.4-.14l-.02.9c-.75.07-1.46.12-2.41.12h-.08c-.1.7-.18,1.44-.26,2.12h.23c.8,0,1.64-.04,2.47-.14l-.02.91c-.79.08-1.52.11-2.32.11h-.43c-.05.47-.07.89-.07,1.18,0,1.13.65,1.85,2,1.85,1.8,0,2.95-.77,2.95-2,0-.8-.43-1.69-1.31-2.42l1.07-.22Z"/><path class="e" d="m117.6,64.09c-1.39.25-3.28.44-4.8.5-.22,1-.49,2.12-.74,2.81,1.03-.73,2-1.03,3.32-1.03,1.89,0,2.99.97,2.99,2.36,0,2.47-2.52,3.41-6.11,3.01l-.26-.95c2.73.38,5.39-.1,5.39-2.04,0-.89-.72-1.56-2.11-1.56s-2.72.47-3.5,1.42c-.16.18-.26.34-.37.55l-.89-.32c.6-1.18,1.08-2.88,1.38-4.22h-.01c-.8,0-1.57-.05-2.25-.11v-.95c.61.11,1.52.2,2.24.2h.19c.06-.31.1-.58.12-.78.06-.38.07-.66.06-.98l1.07.06c-.08.31-.16.68-.22,1-.04.18-.07.42-.13.68,1.43-.06,3.17-.25,4.62-.58v.92Z"/><path class="e" d="m123.54,62.71c.62,0,3.1-.06,3.86-.11.2-.01.48-.05.66-.11l.56.71c-.16.07-.4.25-.52.34-.89.68-2.31,1.82-3.19,2.59.66-.26,1.23-.34,1.78-.34,1.92,0,3.32,1.12,3.32,2.75,0,2.31-2.3,3.59-5.94,3.3l-.29-.97c3.05.37,5.23-.53,5.23-2.34,0-1.13-.98-1.92-2.5-1.92-2.16,0-3.37,1.2-4.62,2.53l-.69-.74c1.65-1.55,4.65-4.05,5.67-4.97-.73.04-2.7.12-3.28.16-.26.02-.57.05-.81.08l-.04-1c.22.02.48.04.8.04Z"/><path class="e" d="m137.52,62.98c-.53.82-1.68,2.91-2.29,4.07.57-.52,1.17-.72,1.74-.72.79,0,1.37.52,1.4,1.45.02.71,0,1.62.05,2.19.04.59.43.84.95.84,1.32,0,2.1-1.63,2.41-2.89l.79.64c-.62,1.92-1.63,3.25-3.35,3.25-1.26,0-1.68-.82-1.71-1.51-.05-.7-.02-1.62-.06-2.25-.02-.53-.32-.83-.86-.83-.96,0-1.83.96-2.3,1.89-.36.71-.86,2.11-1.02,2.7l-1.04-.35c.87-2.4,3.55-7.42,4.19-8.56.13-.29.29-.58.43-.92l1.07.43c-.11.13-.25.35-.38.58Z"/><path class="e" d="m146.98,72.09c-.77-.96-1.8-1.98-2.65-2.67l.78-.68c.86.7,1.94,1.79,2.68,2.66l-.81.7Z"/><path class="e" d="m157.65,63.94c-.16,2.17-.53,3.89-1.11,5.23.56.43,1.04.88,1.37,1.27l-.54.71c-.29-.36-.72-.78-1.22-1.2-.6,1.07-1.37,1.85-2.3,2.41-.12-.22-.36-.54-.55-.72.87-.46,1.61-1.2,2.17-2.23-.4-.3-.81-.59-1.23-.85l-.13.5-.74-.38c.29-1.03.65-2.51.98-4.01h-1.14v-.82h1.31c.19-.86.36-1.71.49-2.46l.85.1c-.14.73-.31,1.54-.49,2.36h1.62l.16-.04.53.12Zm-2.48.73c-.24,1.07-.49,2.13-.73,3.08.46.26.93.56,1.39.89.46-1.08.77-2.4.92-3.97h-1.58Zm8.96,2.35h-2.85v4.19c0,.54-.12.8-.5.95-.37.13-.99.16-1.94.16-.05-.24-.2-.64-.34-.86.75.02,1.43.02,1.63.01.2-.01.26-.07.26-.25v-4.19h-2.8v-.83h2.8v-1.6h.36c.6-.48,1.23-1.16,1.71-1.77h-4.48v-.82h5.13l.18-.06.59.43c-.67.96-1.69,2.04-2.6,2.75v1.07h2.85v.83Z"/><path class="e" d="m174.86,65.82c-.53.18-1.21.35-2.01.5.35.76.73,1.56,1.07,2.18l-.47.59c-.6-.11-1.56-.24-2.31-.34l.08-.73c.57.07,1.14.13,1.51.17-.23-.47-.5-1.09-.78-1.72-1.53.2-3.47.23-5.31.11l-.04-.88c1.81.17,3.57.16,4.98-.02l-.42-.97c-.1-.2-.18-.42-.26-.61-1.2.11-2.7.11-4.17-.02l-.06-.88c1.41.16,2.74.18,3.88.1-.06-.13-.11-.25-.16-.36-.18-.37-.29-.59-.44-.84l1.08-.23c.11.41.26.86.44,1.32.83-.13,1.67-.31,2.36-.56l.17.85c-.61.19-1.39.37-2.2.5l.22.49c.1.25.26.62.47,1.07.93-.17,1.65-.38,2.19-.59l.18.86Zm-6.82,2.47c-.14.37-.28.9-.28,1.21,0,.91.72,1.49,2.41,1.49.96,0,2.08-.08,2.92-.28l-.02.97c-.74.13-1.89.23-2.86.23-2.12,0-3.37-.73-3.37-2.22,0-.5.14-1.06.28-1.49l.92.08Z"/><path class="e" d="m183.06,64.22c-.62.18-1.37.34-2.14.43-.59,1.68-1.64,3.74-2.59,5.02l-.93-.48c.99-1.15,2-3.05,2.54-4.44-.35.02-.69.04-1.04.04-.44,0-.93-.01-1.38-.04l-.07-.9c.44.06.95.08,1.46.08.42,0,.86-.02,1.32-.06.18-.66.35-1.42.37-2.05l1.07.1c-.12.43-.28,1.15-.47,1.83.62-.1,1.25-.24,1.84-.43l.02.89Zm1.39,1.38c-.04.49-.02.84-.01,1.28.01.43.06,1.21.08,1.93,1.02.37,1.84.96,2.46,1.49l-.52.82c-.5-.46-1.14-.98-1.9-1.36.01.18.01.35.01.48,0,.95-.62,1.73-2.08,1.73-1.31,0-2.37-.54-2.37-1.72,0-1.09,1.03-1.8,2.37-1.8.4,0,.78.04,1.13.11-.04-.97-.1-2.13-.12-2.96h.96Zm-.8,3.8c-.37-.11-.78-.17-1.2-.17-.87,0-1.45.4-1.45.94s.44.92,1.37.92c.97,0,1.29-.54,1.29-1.13,0-.16,0-.35-.01-.56Zm3.16-3.48c-.63-.54-1.92-1.27-2.71-1.63l.47-.74c.86.38,2.22,1.15,2.78,1.58l-.54.79Z"/><path class="e" d="m195.01,61.41c1.26,1.76,3.34,3.32,5.22,4.1-.2.22-.42.53-.57.79-1.84-.9-3.94-2.49-5.05-4.04-.97,1.44-2.91,3.08-4.95,4.09-.1-.2-.32-.53-.51-.71,2.05-.98,4.04-2.71,4.96-4.23h.91Zm-5.25,5.96h9.85v.83h-5.62c-.42.89-.93,1.92-1.41,2.76,1.49-.05,3.17-.11,4.85-.18-.49-.56-1.05-1.15-1.58-1.62l.75-.41c1.1.95,2.26,2.24,2.81,3.13l-.8.49c-.14-.24-.32-.52-.55-.8-2.93.14-6.04.28-8.09.35l-.12-.88c.52-.01,1.11-.02,1.76-.05.46-.83.97-1.92,1.29-2.79h-3.15v-.83Zm7.7-2.28v.82h-5.67v-.82h5.67Z"/><path class="e" d="m206.16,68.89c-.31-.35-.97-1.02-1.51-1.52v4.97h-.87v-4.64c-.6.59-1.22,1.09-1.83,1.49-.1-.23-.32-.64-.47-.8,1.43-.83,2.92-2.34,3.75-3.93h-3.33v-.82h1.88v-2.23h.87v2.23h1.04l.16-.04.5.34c-.37.92-.92,1.81-1.55,2.61.55.44,1.6,1.37,1.9,1.63l-.55.72Zm6.6,2.23v.88h-6.71v-.88h3.03v-4.98h-2.56v-.86h2.56v-3.8h.89v3.8h2.55v.86h-2.55v4.98h2.79Z"/><path class="e" d="m219.07,69.8c.04-.46.05-1.22.05-1.85-1.1.6-1.87,1.21-1.87,1.99,0,.94.92,1.07,2.14,1.07.92,0,2.19-.11,3.23-.29l-.02.97c-.9.11-2.22.19-3.25.19-1.7,0-3.07-.36-3.07-1.81s1.41-2.29,2.79-3.01c-.12-.49-.55-.73-1.07-.73-.78,0-1.5.38-2.05.88-.34.32-.67.77-1.08,1.25l-.81-.61c1.51-1.46,2.29-2.69,2.73-3.62h-.49c-.5,0-1.31-.02-1.95-.07v-.9c.63.07,1.46.12,2,.12.25,0,.5,0,.78-.01.17-.53.28-1.07.3-1.48l.98.08c-.08.34-.19.83-.36,1.37,1.21-.06,2.5-.17,3.63-.36v.89c-1.19.18-2.65.29-3.94.34-.26.61-.63,1.27-1.07,1.82.43-.28,1.11-.44,1.64-.44.77,0,1.39.37,1.57,1.08.81-.38,1.53-.67,2.16-.96.36-.16.65-.3.98-.47l.38.9c-.3.08-.73.25-1.04.37-.67.26-1.52.61-2.42,1.03.01.68.02,1.69.04,2.27h-.92Z"/><path class="e" d="m97.92,81.78v2.24c0,1.82-.17,4.51-1.19,6.32-.16-.16-.54-.41-.75-.5.97-1.72,1.07-4.11,1.07-5.82v-3.09h4.4v-1.54h.91v1.54h4.56v.85h-9Zm.01,7.05c.6-.91.91-2.37,1.05-3.63l.81.18c-.17,1.31-.47,2.87-1.08,3.81l-.79-.36Zm5.69.46c.49,0,.56-.3.6-2.05.2.14.56.3.8.36-.1,1.98-.32,2.51-1.34,2.51h-1.75c-1.04,0-1.32-.3-1.32-1.3v-4.63h.87v4.63c0,.41.1.48.55.48h1.58Zm-.07-4.69c-.57-.54-1.77-1.34-2.76-1.85l.61-.58c.96.47,2.17,1.22,2.78,1.76l-.63.66Zm1.83.34c.79,1.22,1.55,2.83,1.75,3.9l-.85.37c-.2-1.06-.91-2.7-1.69-3.95l.79-.32Z"/><path class="e" d="m111.07,86.12v3.18c0,.49-.12.73-.42.88-.28.14-.73.18-1.49.17-.04-.22-.14-.58-.26-.83.51.01.99.01,1.13,0,.14,0,.2-.04.2-.22v-2.9c-.52.17-.99.32-1.44.46l-.14-.86c.44-.12.98-.29,1.58-.47v-2.9h-1.49v-.83h1.49v-2.4h.84v2.4h1.28v.83h-1.28v2.64l1.25-.4.12.8-1.37.46Zm7.68-.08c-.36,1.13-.92,1.99-1.64,2.66.77.43,1.68.73,2.66.91-.19.18-.42.53-.54.76-1.05-.23-2-.6-2.8-1.13-.77.53-1.65.88-2.61,1.12-.1-.18-.34-.53-.5-.66.91-.2,1.74-.5,2.44-.94-.55-.44-1.03-.96-1.4-1.56-.47,1.22-1.17,2.35-2.36,3.13-.13-.2-.41-.49-.61-.62,1.71-1.07,2.36-2.93,2.65-4.67h-1.63v-.76h1.75c.04-.32.07-.65.1-.95h-1.57v-.73h4.25c.38-.59.84-1.42,1.1-2.01l.84.28c-.34.58-.73,1.22-1.1,1.74h1.45v.73h-4.11c-.02.3-.06.62-.1.95h4.55v.76h-4.67c-.04.26-.1.54-.16.8h3.35l.16-.02.5.22Zm.25-5.9c-1.62.36-4.19.55-6.29.61-.02-.2-.13-.49-.22-.7,2.07-.07,4.6-.28,5.99-.59l.51.67Zm-5.28.77c.22.46.49,1.08.6,1.45l-.73.25c-.11-.41-.34-1.04-.56-1.52l.69-.18Zm1.13,5.64c.38.67.92,1.26,1.59,1.74.54-.46.97-1.03,1.27-1.74h-2.86Zm.63-4.08c-.04-.41-.18-1.1-.31-1.63l.71-.12c.16.52.3,1.19.36,1.58l-.75.17Z"/><path class="e" d="m123.75,80.11c-.06.38-.1.8-.12,1.19-.05,1.34-.14,4.15-.14,5.92,0,1.31.84,1.76,1.94,1.76,2.18,0,3.41-1.22,4.26-2.46l.66.83c-.8,1.13-2.34,2.61-4.95,2.61-1.7,0-2.87-.72-2.87-2.65,0-1.76.12-4.76.12-6.02,0-.43-.04-.85-.11-1.2h1.21Z"/><path class="e" d="m138.48,82.22c-.62.18-1.37.34-2.14.43-.59,1.68-1.64,3.74-2.59,5.02l-.93-.48c.99-1.15,2-3.05,2.54-4.44-.35.02-.69.04-1.04.04-.44,0-.93-.01-1.38-.04l-.07-.9c.44.06.95.08,1.46.08.42,0,.86-.02,1.32-.06.18-.66.35-1.42.37-2.05l1.07.1c-.12.43-.28,1.15-.47,1.83.62-.1,1.25-.24,1.84-.43l.02.89Zm1.39,1.38c-.04.49-.02.84-.01,1.28.01.43.06,1.21.08,1.93,1.02.37,1.84.96,2.46,1.49l-.52.82c-.5-.46-1.14-.98-1.9-1.36.01.18.01.35.01.48,0,.95-.62,1.73-2.08,1.73-1.31,0-2.37-.54-2.37-1.72,0-1.09,1.03-1.8,2.37-1.8.4,0,.78.04,1.13.11-.04-.97-.1-2.13-.12-2.96h.96Zm-.8,3.8c-.37-.11-.78-.17-1.2-.17-.87,0-1.45.4-1.45.94s.44.92,1.37.92c.97,0,1.29-.54,1.29-1.13,0-.16,0-.35-.01-.56Zm3.16-3.48c-.63-.54-1.92-1.27-2.71-1.63l.47-.74c.86.38,2.22,1.15,2.78,1.58l-.54.79Z"/><path class="e" d="m149.12,80.14c-.05.23-.11.47-.14.71-.07.35-.18,1.04-.31,1.68.55-.05,1.04-.08,1.33-.08,1.07,0,1.93.42,1.93,2.03,0,1.42-.19,3.29-.68,4.28-.38.79-.97.98-1.74.98-.46,0-1.02-.08-1.4-.17l-.16-1.02c.5.17,1.13.26,1.46.26.43,0,.78-.1,1.03-.61.38-.79.56-2.34.56-3.62,0-1.08-.49-1.27-1.26-1.27-.29,0-.75.04-1.27.08-.43,1.7-1.25,4.38-2.49,6.37l-.97-.4c1.21-1.62,2.08-4.29,2.49-5.88-.62.06-1.19.12-1.5.16-.29.04-.77.08-1.07.14l-.1-1.04c.37.01.67.01,1.05,0,.4-.01,1.08-.07,1.8-.13.17-.85.31-1.77.3-2.58l1.13.11Zm4.07,1.35c.74.96,1.77,3.12,2.17,4.22l-.92.46c-.36-1.22-1.29-3.3-2.12-4.27l.87-.41Zm.49.19c-.24-.48-.65-1.21-.97-1.67l.64-.26c.3.42.74,1.16.99,1.64l-.66.29Zm1.35-.49c-.26-.52-.66-1.2-.99-1.66l.64-.26c.31.43.78,1.19,1.01,1.63l-.65.29Z"/><path class="e" d="m159.05,85.52c1.14-1,2.42-1.43,3.83-1.43,1.82,0,3.03,1.09,3.03,2.48,0,2.13-1.88,3.57-6.29,3.2l-.29-.98c3.74.46,5.57-.62,5.57-2.24,0-.95-.87-1.61-2.08-1.61-1.58,0-2.83.58-3.67,1.57-.17.2-.28.41-.36.6l-.9-.22c.24-1.08.53-3.57.6-4.82l1.02.13c-.16.82-.36,2.54-.47,3.31Zm.73-5.47c1.02.32,3.53.82,4.59.91l-.23.94c-1.13-.16-3.7-.68-4.61-.94l.25-.91Z"/><path class="e" d="m25.18,97.85h5.33v.8h-1.63v1.39h1.35v8.08h-.73v-.66h-3.31v.83h-.72v-8.25h1.43v-1.39h-1.72v-.8Zm1.02,2.95v4.04h3.31v-1.12s-.08.01-.13.01h-.57c-.47,0-.61-.12-.61-.7v-2.24h-.67v.96c0,.73-.17,1.68-.91,2.36-.08-.11-.29-.29-.4-.35.69-.61.81-1.39.81-2.03v-.95h-.83Zm3.31,5.95v-1.23h-3.31v1.23h3.31Zm-1.26-8.1h-.71v1.39h.71v-1.39Zm1.26,2.15h-.81v2.24c0,.16.01.17.17.17h.43c.12,0,.16,0,.17-.04l.05.04v-2.41Zm5.01,6.57c.53,0,.62-.3.68-2.03.2.16.57.32.83.38-.12,1.94-.37,2.48-1.46,2.48h-1.99c-1.1,0-1.44-.28-1.44-1.37v-5.17h3.57v-2.89h-3.62v-.86h4.49v5.41h-.87v-.8h-2.7v4.32c0,.44.11.53.66.53h1.84Z"/><path class="e" d="m43.17,101.6h3.9v6.74h-.92v-.53h-8.01v-.88h8.01v-1.86h-7.39v-.86h7.39v-1.74h-7.79v-.88h3.84v-4.22h.96v4.22Zm-3.44-.6c-.25-.77-.9-1.93-1.52-2.77l.78-.32c.67.84,1.32,1.97,1.59,2.72l-.85.37Zm7.5-2.88c-.5,1.02-1.17,2.18-1.71,2.96l-.77-.31c.53-.78,1.19-2.05,1.55-2.97l.93.32Z"/><path class="e" d="m51.62,98.81c.1.19.3.58.42.78.2.4.44.88.68,1.37,1.43-.64,3.03-1.27,4.26-1.27,1.64,0,2.65.95,2.65,2.24,0,1.37-.87,2.41-2.73,2.41-.66,0-1.33-.17-1.77-.34l.04-.96c.44.22,1.04.4,1.68.4,1.31,0,1.83-.71,1.83-1.55,0-.72-.55-1.36-1.72-1.36-1.03,0-2.49.56-3.86,1.2.16.32.31.66.46.98.65,1.46,1.39,3.68,1.8,4.99l-1.03.28c-.37-1.4-.93-3.32-1.62-4.87-.14-.34-.3-.67-.44-.98-.91.44-1.74.88-2.28,1.12l-.47-.98c.35-.1.77-.24.98-.32.4-.16.87-.37,1.39-.6-.24-.53-.47-.97-.67-1.31-.14-.25-.38-.6-.57-.84l.98-.38Zm3.56.85c-.46-.46-1.03-1.01-1.55-1.38l.69-.5c.4.3,1.1.88,1.55,1.34l-.69.54Z"/><path class="e" d="m65.13,103.83c-.17-.41-.59-1.19-.93-1.82v6.32h-.87v-5.85c-.41,1.34-.95,2.63-1.5,3.43-.11-.26-.32-.65-.49-.86.78-1,1.53-2.89,1.89-4.52h-1.62v-.84h1.71v-2.3h.87v2.3h1.52v.84h-1.52v.4c.32.44,1.27,1.93,1.47,2.29l-.54.62Zm4.9-.47c.6,1.42,1.6,2.84,2.58,3.6-.22.16-.49.46-.65.68-.91-.83-1.82-2.27-2.44-3.73v4.41h-.87v-4.31c-.73,1.51-1.81,2.91-2.91,3.72-.14-.22-.41-.53-.61-.68,1.17-.74,2.32-2.21,3.02-3.69h-2.34v-.82h2.84v-2.11h-1.49c-.22.67-.47,1.28-.78,1.76-.16-.13-.51-.36-.73-.44.63-.94,1.02-2.36,1.22-3.81l.83.14c-.08.53-.19,1.04-.31,1.54h1.26v-2.23h.87v2.23h2.34v.82h-2.34v2.11h2.75v.82h-2.24Z"/><path class="e" d="m84.94,107.07v.88h-10.59v-.88h4.79v-2.94h-3.69v-.86h3.69v-2.63h-4.24v-.88h5.26c-.47-.55-1.32-1.31-2.04-1.83l.72-.5c.77.55,1.72,1.37,2.19,1.93l-.56.41h3.87v.88h-4.25v2.63h3.76v.86h-3.76v2.94h4.85Z"/><path class="e" d="m89.27,97.68c-.26.79-.57,1.58-.93,2.34v8.31h-.85v-6.72c-.36.6-.73,1.14-1.13,1.61-.08-.22-.32-.68-.47-.9,1.03-1.2,1.98-3.02,2.55-4.87l.83.23Zm6.72,7.78c-.43.62-1.09,1.15-1.94,1.6.95.29,2.04.48,3.16.58-.17.18-.38.53-.49.74-1.33-.16-2.59-.44-3.65-.89-1.03.38-2.28.67-3.71.86-.08-.19-.29-.48-.43-.67,1.23-.13,2.32-.35,3.25-.64-.48-.26-.9-.58-1.26-.94-.42.24-.89.47-1.4.68-.12-.18-.36-.43-.54-.55,1.27-.43,2.24-1.04,2.85-1.62-.32-.1-.43-.31-.43-.74v-.76h.74v.76c0,.22.07.25.47.25h1.49c.28,0,.34-.06.37-.53.14.08.42.17.61.2-.07.7-.26.88-.89.88h-1.43c-.16.17-.34.34-.53.5h3.04l.16-.04.56.31Zm-3.58-6.24c.05-.2.1-.42.14-.62h-3.07v-.68h7.39v.68h-3.38c-.08.22-.17.43-.25.62h2.72v3h1.11v1.61h-.8v-1.03h-3.03c.31.2.6.43.78.64l-.54.38c-.25-.3-.78-.71-1.22-.95l.1-.07h-2.43v1.03h-.78v-1.61h1.17v-3h2.08Zm-2.98,5.15c.51-.28.98-.79,1.27-1.21l.59.32c-.31.46-.75,1.01-1.31,1.34l-.55-.46Zm5.7-4.63h-3.99v.5h3.99v-.5Zm0,.97h-3.99v.52h3.99v-.52Zm0,1.51v-.52h-3.99v.52h3.99Zm-3.55,3.54c.4.37.92.68,1.52.95.67-.28,1.21-.6,1.6-.95h-3.13Zm3.84-2.65c.53.4,1.11.97,1.39,1.38l-.6.35c-.25-.41-.83-1-1.35-1.4l.56-.32Z"/><path class="e" d="m102.46,100.36c-.26.5-.6,1-.96,1.46v6.51h-.86v-5.49c-.44.49-.91.95-1.38,1.32-.08-.2-.32-.66-.48-.88,1.07-.78,2.22-2,2.9-3.24l.78.31Zm-.14-2.61c-.69,1.02-1.84,2.15-2.9,2.85-.1-.2-.31-.54-.46-.72.93-.61,2-1.62,2.52-2.46l.84.32Zm5.88,4.35v1.32h1.6v.82h-1.6v3.02c0,.54-.11.78-.48.92-.37.14-.99.14-1.92.14-.04-.25-.17-.6-.29-.85.72.02,1.38.02,1.56.01.2-.01.25-.06.25-.23v-3.02h-4.85v-.82h4.85v-1.32h-4.98v-.83h3.32v-1.52h-2.62v-.82h2.62v-1.49h.87v1.49h2.73v.82h-2.73v1.52h3.35v.83h-1.69Zm-4.08,2.47c.55.62,1.17,1.49,1.44,2.06l-.75.44c-.25-.58-.85-1.48-1.4-2.1l.72-.41Z"/><path class="e" d="m116.91,105.8c.04-.46.05-1.22.05-1.85-1.1.6-1.87,1.21-1.87,1.99,0,.94.92,1.07,2.14,1.07.92,0,2.19-.11,3.23-.29l-.02.97c-.9.11-2.22.19-3.25.19-1.7,0-3.07-.36-3.07-1.81s1.41-2.29,2.79-3.01c-.12-.49-.55-.73-1.07-.73-.78,0-1.5.38-2.05.88-.34.32-.67.77-1.08,1.25l-.81-.61c1.51-1.46,2.29-2.69,2.73-3.62h-.49c-.5,0-1.31-.02-1.95-.07v-.9c.63.07,1.46.12,2,.12.25,0,.5,0,.78-.01.17-.53.28-1.07.3-1.48l.98.08c-.08.34-.19.83-.36,1.37,1.21-.06,2.5-.17,3.63-.36v.89c-1.19.18-2.65.29-3.94.34-.26.61-.63,1.27-1.07,1.82.43-.28,1.11-.44,1.64-.44.77,0,1.39.37,1.57,1.08.81-.38,1.53-.67,2.16-.96.36-.16.65-.3.98-.47l.38.9c-.3.08-.73.25-1.04.37-.67.26-1.52.61-2.42,1.03.01.68.02,1.69.04,2.27h-.92Z"/><path class="e" d="m130.07,104.95c1.03,1.04,2.7,1.92,4.26,2.35-.2.18-.47.52-.59.76-1.64-.54-3.38-1.58-4.5-2.83v3.08h-.89v-3.13c-1.1,1.28-2.86,2.39-4.44,2.96-.13-.23-.4-.56-.6-.74,1.51-.47,3.15-1.39,4.19-2.45h-3.95v-.8h4.8v-1.01h-1.72v-4.55h1.5c.13-.4.25-.86.31-1.21l.96.14c-.13.37-.28.74-.41,1.07h2.06v4.55h-1.81v1.01h4.86v.8h-4.04Zm-3.64-3.2c-.9.55-1.89,1.14-2.66,1.6l-.46-.73c.72-.37,1.81-.98,2.86-1.58l.25.72Zm-.8-1.26c-.36-.56-1.19-1.34-1.92-1.87l.6-.52c.74.5,1.59,1.25,1.98,1.81l-.66.58Zm1.82.04h2.75v-1.21h-2.75v1.21Zm0,1.89h2.75v-1.23h-2.75v1.23Zm6.32.9c-.57-.54-1.75-1.31-2.7-1.81l.53-.59c.92.47,2.12,1.2,2.71,1.72l-.54.68Zm.14-4.88c-.62.7-1.43,1.45-2.07,1.95l-.66-.44c.63-.52,1.49-1.34,1.98-1.96l.75.44Z"/><path class="e" d="m138.43,98.11c-.06.38-.1.8-.12,1.19-.05,1.34-.14,4.15-.14,5.92,0,1.31.84,1.76,1.94,1.76,2.18,0,3.41-1.22,4.26-2.46l.66.83c-.8,1.13-2.34,2.61-4.95,2.61-1.7,0-2.87-.72-2.87-2.65,0-1.76.12-4.76.12-6.02,0-.43-.04-.85-.11-1.2h1.21Z"/><path class="e" d="m156.03,104.42c.01.64.02.79,0,1.28-.05,1.12-.47,1.63-1.55,1.93-.52.13-1.68.23-2.46.23-2.37,0-2.73-.58-2.73-1.45,0-.2.01-.4.01-.58-.11.02-.24.04-.37.04-.67,0-1.53-.49-1.53-1.87,0-1.22.78-2.34,1.94-2.34.11,0,.22.01.31.02v-1.18c-.14.01-.29.01-.42.01-.52,0-1.21-.02-1.89-.12l-.05-.89c.71.11,1.29.16,1.88.16.16,0,.31,0,.48-.01v-.59c0-.48-.02-.88-.08-1.13h1.05c-.04.25-.07.68-.07,1.13v.52c.74-.07,1.52-.22,2.26-.42v.92c-.73.17-1.53.29-2.26.36v1.79c.19.29.3.65.3,1.06,0,.66-.16,1.49-.62,2.02-.01.25-.02.54-.02.76,0,.66.16.9,1.88.9.66,0,1.59-.08,2.01-.2.62-.18.98-.53.98-1.32,0-.47-.01-.86-.08-1.34l1.03.32Zm-7,.56c.68,0,.95-.84.95-1.64,0-.56-.29-.9-.68-.9-.59,0-1.09.62-1.09,1.51,0,.66.4,1.03.83,1.03Zm5.75-5.85c.69.47,1.83,1.52,2.36,2.19l-.67.68c-.57-.74-1.65-1.77-2.31-2.24l.62-.64Z"/><path class="e" d="m160.59,103.81c-.14.48-.24.91-.24,1.35,0,.89.91,1.51,2.8,1.51,1.64,0,3.16-.18,4.06-.46v1.03c-.84.23-2.35.41-4.04.41-2.41,0-3.81-.79-3.81-2.28,0-.62.13-1.18.24-1.67l.98.1Zm-.49-4.8c.86.11,1.95.16,3.14.16s2.35-.08,3.2-.17v.98c-.8.06-2.11.14-3.2.14-1.19,0-2.19-.05-3.14-.13v-.98Z"/><path class="e" d="m177.78,100.28c-.26.17-.56.32-.91.5-.79.41-2.44,1.19-3.61,1.96-1.1.72-1.76,1.5-1.76,2.4,0,.98.93,1.6,2.8,1.6,1.29,0,2.87-.17,3.8-.41v1.08c-.9.16-2.26.29-3.75.29-2.23,0-3.84-.67-3.84-2.45,0-1.22.78-2.19,2.05-3.08-.55-.97-1.17-2.36-1.72-3.66l.95-.38c.48,1.3,1.08,2.58,1.59,3.51,1.11-.67,2.4-1.3,3.04-1.67.35-.19.6-.35.85-.56l.51.88Z"/><path class="e" d="m185.04,98.14c-.05.23-.11.47-.14.71-.07.35-.18,1.04-.31,1.68.55-.05,1.04-.08,1.33-.08,1.07,0,1.93.42,1.93,2.03,0,1.42-.19,3.29-.68,4.28-.38.79-.97.98-1.74.98-.46,0-1.02-.08-1.4-.17l-.16-1.02c.5.17,1.13.26,1.46.26.43,0,.78-.1,1.03-.61.38-.79.56-2.34.56-3.62,0-1.08-.49-1.27-1.26-1.27-.29,0-.75.04-1.27.08-.43,1.7-1.25,4.38-2.49,6.37l-.97-.4c1.21-1.62,2.08-4.29,2.49-5.88-.62.06-1.19.12-1.5.16-.29.04-.77.08-1.07.14l-.1-1.04c.37.01.67.01,1.05,0,.4-.01,1.08-.07,1.8-.13.17-.85.31-1.77.3-2.58l1.13.11Zm4.07,1.35c.74.96,1.77,3.12,2.17,4.22l-.92.46c-.36-1.22-1.29-3.3-2.12-4.27l.87-.41Zm.49.19c-.24-.48-.65-1.21-.97-1.67l.64-.26c.3.42.74,1.16.99,1.64l-.66.29Zm1.35-.49c-.26-.52-.66-1.2-.99-1.66l.64-.26c.31.43.78,1.19,1.01,1.63l-.65.29Z"/><path class="e" d="m194.33,99.47c.78-.07,3.02-.29,5.2-.48,1.29-.11,2.41-.17,3.2-.2v.96c-.68,0-1.71.01-2.32.19-1.69.54-2.71,2.35-2.71,3.75,0,2.31,2.16,3.05,4.08,3.12l-.35,1.01c-2.19-.1-4.7-1.27-4.7-3.92,0-1.85,1.11-3.36,2.2-4.01-1.04.12-4.28.43-5.56.7l-.11-1.06c.46-.01.83-.04,1.05-.06Zm7.7,3.39l-.61.29c-.28-.58-.62-1.2-.98-1.69l.61-.26c.28.4.73,1.14.98,1.67Zm1.37-.52l-.62.29c-.29-.58-.64-1.16-1.02-1.67l.6-.28c.29.4.75,1.13,1.04,1.66Z"/><path class="e" d="m214.32,101.82c-.53.18-1.21.35-2.01.5.35.76.73,1.56,1.07,2.18l-.47.59c-.6-.11-1.56-.24-2.31-.34l.08-.73c.57.07,1.14.13,1.51.17-.23-.47-.5-1.09-.78-1.72-1.53.2-3.47.23-5.31.11l-.04-.88c1.81.17,3.57.16,4.98-.02l-.42-.97c-.1-.2-.18-.42-.26-.61-1.2.11-2.7.11-4.17-.02l-.06-.88c1.41.16,2.74.18,3.88.1-.06-.13-.11-.25-.16-.36-.18-.37-.29-.59-.44-.84l1.08-.23c.11.41.26.86.44,1.32.83-.13,1.67-.31,2.36-.56l.17.85c-.61.19-1.39.37-2.2.5l.22.49c.1.25.26.62.47,1.07.93-.17,1.65-.38,2.19-.59l.18.86Zm-6.82,2.47c-.14.37-.28.9-.28,1.21,0,.91.72,1.49,2.41,1.49.96,0,2.08-.08,2.92-.28l-.02.97c-.74.13-1.89.23-2.86.23-2.12,0-3.37-.73-3.37-2.22,0-.5.14-1.06.28-1.49l.92.08Z"/><path class="e" d="m225.08,107.28c-.69-.64-1.68-1.35-2.86-1.79.01.3.02.56.02.74,0,.82-.55,1.67-2.1,1.67-1.7,0-2.65-.61-2.65-1.76,0-1.08,1.04-1.81,2.76-1.81.35,0,.67.02.99.07-.02-.53-.05-1.09-.06-1.58h-.66c-.81,0-2.13-.07-2.98-.17v-.91c.8.14,2.2.23,2.98.23h.64v-1.7h-.59c-.83,0-2.08-.1-2.79-.18v-.89c.72.13,1.99.23,2.78.23h.61v-.78c0-.19-.01-.54-.04-.71h1.02c-.04.22-.05.44-.06.79-.01.14-.01.37-.01.66,1.03-.04,2-.13,3.04-.29v.88c-.92.1-1.94.19-3.05.25v1.7c1.14-.05,2.23-.16,3.29-.31v.9c-1.1.14-2.16.23-3.28.28.02.61.06,1.24.08,1.8,1.57.43,2.78,1.31,3.45,1.85l-.54.84Zm-3.8-2.05c-.37-.07-.75-.11-1.15-.11-1.13,0-1.74.43-1.74.97s.47.96,1.64.96c.68,0,1.26-.2,1.26-1.02,0-.2-.01-.48-.01-.8Z"/><path class="e" d="m234.27,100.32c0,.67.01,1.4.02,1.94.25.41.38.94.38,1.52,0,1.61-.78,3.39-3.53,4.22l-.83-.8c1.56-.36,2.66-1.01,3.15-2.06-.29.2-.62.3-1.02.3-1.01,0-1.96-.71-1.96-1.99,0-1.18.97-2.08,2.1-2.08.29,0,.55.05.79.13,0-.35,0-.77-.01-1.18-1.8.01-3.81.1-5.29.2l-.02-.94c1.32-.02,3.55-.1,5.31-.12,0-.34-.01-.61-.02-.78-.01-.25-.05-.6-.07-.74h1.09l-.06.74c0,.18-.01.46-.01.77h.18c1.44,0,2.9.01,3.47.01v.9c-.68-.04-1.76-.06-3.5-.06h-.16Zm-.64,2.6c-.19-.52-.59-.73-1.05-.73-.61,0-1.2.48-1.2,1.25s.55,1.18,1.21,1.18c.69,0,1.15-.56,1.04-1.69Z"/><path class="e" d="m38.82,18.92v2.19h-15.61v-2.19h15.61Z"/><path class="e" d="m47.72,12.63c-.02.27-.03.61-.05.97.14,2.35.98,9.67,7.31,12.65-.63.48-1.24,1.17-1.56,1.72-3.83-1.9-5.73-5.41-6.69-8.53-.92,3.06-2.7,6.34-6.28,8.53-.36-.53-1.02-1.14-1.7-1.61,6.77-3.76,6.53-11.47,6.65-13.72h2.31Z"/><path class="e" d="m69.8,22.34c-.53-.68-1.03-1.43-1.53-2.28.15,3.88-1.68,7.56-6.06,7.56-2.8,0-4.72-1.8-4.72-4.69,0-2.53,1.31-5.08,2.65-6.61-.64.08-1.58.24-2.17.36-.32.07-.59.14-.98.22l-.29-2.19c.29,0,.63-.02.95-.05,1.76-.14,4.58-.59,5.68-.97l.63,1.87c-.24.1-.59.22-.83.37-1.15.9-3.48,3.88-3.48,6.71,0,1.85,1.2,2.7,2.66,2.7,3.26,0,5.11-3.89,3.75-10.05-.12-.32-.24-.65-.36-.99l2.04-.63c.46,2.11,1.41,4.74,3.61,6.97l-1.56,1.68Z"/><path class="e" d="m85.34,16.75c-.51.31-1.05.6-1.66.9-1.05.53-3.16,1.51-4.68,2.5-1.41.92-2.34,1.89-2.34,3.06s1.17,1.85,3.5,1.85c1.73,0,4-.27,5.5-.61l-.03,2.43c-1.43.24-3.21.41-5.4.41-3.34,0-5.87-.94-5.87-3.82,0-1.87,1.17-3.25,2.78-4.44-.78-1.44-1.59-3.23-2.36-5.01l2.12-.87c.64,1.75,1.43,3.37,2.1,4.66,1.37-.8,2.83-1.55,3.63-1.99.63-.37,1.12-.66,1.54-1.02l1.17,1.95Z"/><path class="e" d="m93.01,13.04c-.24.83-.58,2.55-.68,3.48.8-1.29,2.26-2.72,4.16-2.72,2.34,0,4.16,2.29,4.16,6,0,4.76-2.92,7.04-7.36,7.85l-1.27-1.96c3.73-.58,6.35-1.8,6.35-5.88,0-2.6-.87-4.05-2.26-4.05-1.99,0-3.72,2.99-3.8,5.2-.02.46-.02,1,.08,1.79l-2.09.14c-.08-.65-.2-1.68-.2-2.8,0-1.56.22-3.65.48-5.39.08-.61.12-1.29.14-1.77l2.31.1Z"/><path class="e" d="m111.28,25.35c.65-.08,1.12-.17,1.56-.27,2.16-.51,3.82-2.06,3.82-4.5s-1.26-4.06-3.51-4.45c-.24,1.43-.53,2.99-1,4.57-1,3.4-2.46,5.47-4.29,5.47s-3.43-2.06-3.43-4.9c0-3.88,3.38-7.21,7.74-7.21s6.79,2.91,6.79,6.58-2.17,6.05-6.41,6.7l-1.26-1.99Zm-1.31-5.1c.39-1.24.7-2.69.9-4.08-2.78.58-4.26,3.03-4.26,4.88,0,1.7.68,2.53,1.31,2.53.7,0,1.37-1.05,2.05-3.33Z"/><path class="e" d="m134.64,13.16v14.77h-2.14v-1.05h-7.86v1.05h-2.04v-14.77h12.03Zm-9.99,1.97v1.95h7.86v-1.95h-7.86Zm0,3.86v2.01h7.86v-2.01h-7.86Zm7.86,5.92v-2.01h-7.86v2.01h7.86Z"/><path class="e" d="m153.42,14.86s0,.68-.02.92c-.22,7.6-.41,10.3-1.1,11.2-.48.63-.95.82-1.63.94-.64.08-1.66.07-2.66.03-.03-.56-.31-1.41-.66-1.97,1.09.1,2.09.1,2.53.1.34,0,.53-.07.75-.29.49-.54.71-3.09.9-9.09h-3.63c-.44,1.02-.97,1.95-1.49,2.69-.27-.25-.85-.65-1.31-.95v7.94h-4.53v1.24h-1.83v-12.63h1.92c.22-.85.42-1.94.49-2.74l2.21.31c-.29.85-.59,1.7-.88,2.43h2.63v2.75c.98-1.43,1.8-3.48,2.29-5.47l1.92.44c-.17.73-.41,1.44-.66,2.16h4.78Zm-10.16,1.89h-2.7v2.75h2.7v-2.75Zm0,7.84v-3.33h-2.7v3.33h2.7Zm5.63-.92c-.48-1.02-1.53-2.69-2.36-3.93l1.58-.9c.85,1.17,1.97,2.79,2.49,3.77l-1.71,1.05Z"/><path class="e" d="m159.97,13.67c-.14.34-.34,1.19-.41,1.5-.24,1.12-.81,4.49-.81,6.17,0,.32.02.73.07,1.09.24-.59.51-1.16.75-1.7l1.05.82c-.48,1.41-1.04,3.23-1.2,4.13-.05.24-.1.61-.1.78.02.19.02.46.03.7l-1.93.14c-.34-1.17-.66-3.23-.66-5.51,0-2.53.51-5.37.7-6.66.07-.48.17-1.12.17-1.65l2.36.2Zm3.94,8.31c-.14.54-.2.95-.2,1.41,0,.75.64,1.19,2.34,1.19,1.51,0,2.75-.14,4.21-.44l.05,2.28c-1.09.2-2.44.34-4.34.34-2.9,0-4.28-1.05-4.28-2.77,0-.7.12-1.41.29-2.19l1.93.19Zm5.87-7.21v2.18c-2.07.19-5.11.19-7.21,0l-.02-2.18c2.07.29,5.41.22,7.23,0Z"/><path class="e" d="m181.15,12.26c1.82,2.6,4.56,4.76,7.26,5.85-.49.53-.95,1.19-1.31,1.82-.87-.44-1.75-1-2.6-1.61v1.17h-8.45v-1.19c-.83.61-1.73,1.17-2.63,1.67-.27-.49-.83-1.22-1.27-1.65,2.92-1.41,5.63-3.98,6.91-6.05h2.09Zm-6.21,8.91h10.76v6.97h-2.07v-.63h-6.7v.63h-1.99v-6.97Zm8.74-3.47c-1.41-1.1-2.66-2.33-3.48-3.45-.8,1.14-1.99,2.35-3.38,3.45h6.85Zm-6.75,5.25v2.77h6.7v-2.77h-6.7Z"/><path class="e" d="m196.84,16.19c-.22.29-.58.83-.87,1.27-.02.17-.02.32-.03.49,1.7-1.27,3.43-1.75,4.94-1.75,2.6,0,4.63,1.84,4.63,4.54,0,3.4-2.12,5.44-6.29,6.27l-1-2.04c2.95-.46,5.06-1.65,5.06-4.28,0-1.31-1.05-2.5-2.73-2.5-1.78,0-3.36.85-4.77,2.16-.02.48-.03.95-.03,1.39,0,1.38,0,2.79.1,4.37.02.31.08.92.12,1.29h-2.31c.03-.36.05-.97.05-1.24.03-1.31.03-2.28.07-3.71-.71,1.07-1.54,2.29-2.12,3.11l-1.32-1.87c.95-1.16,2.65-3.4,3.6-4.81l.07-1.17c-.81.1-2.1.27-3.05.39l-.2-2.16c.48.02.87.02,1.46-.02.49-.03,1.22-.12,1.93-.22.03-.63.07-1.1.07-1.29,0-.48.02-.99-.07-1.5l2.46.07c-.1.48-.24,1.34-.37,2.4l.63.8Z"/><path class="e" d="m220.13,13.37c-.05.26-.08.99-.1,1.44-.02.66-.03,1.26-.05,1.82.46-.03.88-.07,1.27-.08.46-.03,1.12-.08,1.61-.12v2.07c-.29-.02-1.17,0-1.63.02-.36.02-.8.03-1.29.07-.05,1.27-.12,2.65-.25,3.37-.17.88-.59,1.1-1.46,1.1-.59,0-1.93-.15-2.53-.26l.05-1.85c.53.1,1.2.2,1.54.2s.48-.07.53-.39c.07-.46.1-1.22.12-2.02-1.48.12-3.12.27-4.56.42-.02,1.55-.03,3.09,0,3.81.05,1.65.19,2.02,2.71,2.02,1.65,0,3.77-.2,5.02-.44l-.08,2.31c-1.14.14-3.19.27-4.78.27-4.36,0-4.89-.92-4.95-3.82-.02-.71-.02-2.35-.02-3.93l-1.14.12c-.53.07-1.58.24-2.02.31l-.22-2.16c.48,0,1.26-.03,2.1-.1l1.27-.12v-1.7c0-.7-.05-1.27-.14-1.87h2.38c-.07.56-.1,1.04-.1,1.75,0,.39,0,.95-.02,1.61,1.43-.14,3.05-.29,4.58-.42v-1.9c0-.43-.07-1.22-.12-1.53h2.27Z"/><path class="e" d="m234.69,16.92c-1,.22-2.14.41-3.26.54-.15.73-.32,1.48-.51,2.16-.61,2.36-1.75,5.81-2.66,7.79l-2.36-.78c1-1.68,2.27-5.22,2.9-7.58.12-.44.24-.92.36-1.39-.39.02-.76.03-1.1.03-.81,0-1.44-.03-2.04-.07l-.05-2.11c.87.1,1.43.14,2.12.14.49,0,.98-.02,1.49-.05.07-.37.12-.7.15-.97.08-.63.1-1.31.07-1.7l2.56.2c-.12.46-.27,1.21-.36,1.58l-.14.65c.95-.15,1.9-.34,2.82-.56v2.12Zm-.34,5.52c-.14.48-.24,1.04-.24,1.41,0,.73.42,1.27,2.22,1.27,1.12,0,2.29-.12,3.5-.34l-.08,2.16c-.95.12-2.09.24-3.43.24-2.83,0-4.28-.99-4.28-2.69,0-.77.15-1.58.29-2.24l2.02.19Zm-.98-4.23c.93-.08,2.14-.17,3.22-.17.95,0,1.97.05,2.95.15l-.05,2.02c-.83-.1-1.87-.2-2.88-.2-1.17,0-2.19.05-3.24.19v-1.99Z"/><path class="e" d="m76.14,36.44v13.65h-2.15v-.83h-8.06v.85h-2.05v-13.67h4.34c.19-.73.37-1.55.46-2.23l2.44.27c-.25.68-.53,1.34-.8,1.96h5.82Zm-10.21,1.94v1.75h8.06v-1.75h-8.06Zm0,3.62v1.75h8.06v-1.75h-8.06Zm8.06,5.39v-1.77h-8.06v1.77h8.06Z"/><path class="e" d="m93.85,37.47v12.63h-2.12v-.88h-9.4v.9h-2.02v-12.65h5.62v-3.21h2.09v3.21h5.84Zm-11.52,2.04v2.84h3.6v-2.84h-3.6Zm0,7.7h3.6v-2.89h-3.6v2.89Zm5.68-7.7v2.84h3.72v-2.84h-3.72Zm3.72,7.7v-2.89h-3.72v2.89h3.72Z"/><path class="e" d="m105.5,38.73c-.76.2-1.8.43-2.92.58-.8,2.36-2.24,5.29-3.6,7.21l-2.05-1.04c1.36-1.65,2.68-4.13,3.43-5.95-.29.02-.58.02-.87.02-.7,0-1.37-.02-2.1-.05l-.15-1.97c.73.08,1.63.12,2.24.12.49,0,1-.02,1.51-.05.24-.94.42-1.96.46-2.82l2.32.24c-.14.54-.34,1.39-.58,2.29.81-.14,1.59-.32,2.26-.53l.05,1.95Zm2.21,1.51c-.05.71-.02,1.41,0,2.16.02.48.05,1.29.1,2.12,1.44.54,2.63,1.39,3.48,2.16l-1.12,1.8c-.59-.54-1.36-1.22-2.27-1.79v.15c0,1.56-.85,2.79-3.24,2.79-2.09,0-3.73-.94-3.73-2.79,0-1.65,1.37-2.92,3.72-2.92.39,0,.78.03,1.14.07-.05-1.26-.14-2.74-.19-3.76h2.12Zm-1.85,5.58c-.44-.1-.88-.17-1.36-.17-.97,0-1.6.41-1.6,1,0,.63.53,1.05,1.44,1.05,1.14,0,1.51-.66,1.51-1.56v-.32Zm4.73-4.67c-.97-.78-2.88-1.89-4.04-2.4l1.09-1.67c1.2.53,3.29,1.67,4.14,2.28l-1.19,1.79Z"/><path class="e" d="m118.37,43.85v4.08c0,1-.19,1.5-.73,1.8-.58.31-1.39.36-2.58.36-.07-.51-.32-1.33-.56-1.85.65.03,1.36.03,1.58.03.22-.02.31-.08.31-.32v-3.47c-.64.2-1.27.39-1.85.56l-.54-2.11c.66-.12,1.48-.31,2.39-.53v-3.14h-2.14v-1.87h2.14v-3.13h1.99v3.13h1.68v1.87h-1.68v2.65l1.41-.34.2,1.75-1.61.53Zm10.67-1.9c-.58,2.06-1.51,3.67-2.77,4.91,1.12.65,2.44,1.12,3.94,1.41-.46.44-1.02,1.29-1.32,1.84-1.66-.39-3.09-1.04-4.28-1.89-1.32.87-2.85,1.5-4.55,1.92-.2-.54-.66-1.39-1.03-1.85,1.48-.29,2.83-.77,3.99-1.46-.81-.87-1.48-1.9-2.04-3.08l1.43-.44h-1.85v-1.82h.34c-.24-.41-.95-1.17-1.32-1.46,1.68-.97,1.88-2.29,1.88-3.42v-1.73h6.01v3.69c0,.46.05.51.25.51h.48c.25,0,.31-.24.34-1.72.37.29,1.14.6,1.65.71-.17,2.09-.59,2.67-1.76,2.67h-1.07c-1.39,0-1.82-.49-1.82-2.16v-1.84h-2.17c-.02,1.6-.49,3.52-2.41,4.74h6.4l.37-.07,1.32.53Zm-6.19,1.36c.44.88,1.04,1.67,1.76,2.35.73-.66,1.32-1.44,1.76-2.35h-3.53Z"/><path class="e" d="m143.03,47.26c1.73.61,3.68,1.43,4.84,1.99l-2.34.9c-.97-.56-2.7-1.36-4.41-2.01l1.53-.88h-4.95l1.54.68c-1.41.92-3.58,1.75-5.29,2.23-.36-.39-1.07-1.12-1.49-1.48,1.65-.31,3.5-.85,4.67-1.43h-2.49v-6.9h3.55c-.2-.41-.53-.9-.8-1.17l.02.07c-1.46.42-3.04.88-4.31,1.24l-.75-1.77c1.26-.24,3.07-.66,4.87-1.09l.17,1.53c2.7-.44,3.6-1.17,3.97-2.38h-1.22c-.39.48-.83.93-1.36,1.36-.36-.36-1.05-.77-1.51-.95,1.22-.85,2.05-1.97,2.49-2.96l1.78.29c-.14.29-.27.56-.44.83h5.01l.31-.05,1.34.34c-.44.92-1.05,1.94-1.61,2.57l-1.56-.49c.2-.25.44-.58.66-.93h-1.88c.37,1.1,1.32,2.02,4.75,2.43-.37.37-.81,1.16-1,1.65-.41-.07-.78-.14-1.12-.22v6.61h-2.94Zm-6.41-10.01c-.78-.43-2.38-1.04-3.55-1.38l.88-1.38c1.12.27,2.73.82,3.58,1.22l-.92,1.53Zm-.05,5.05h7.35v-.73h-7.35v.73Zm0,1.87h7.35v-.73h-7.35v.73Zm0,1.89h7.35v-.75h-7.35v.75Zm8.45-5.69c-1.31-.48-2.09-1.1-2.6-1.84-.59.8-1.54,1.39-3.09,1.84h5.68Z"/><path class="e" d="m157.28,35.38c-.1.44-.2.97-.29,1.39-.1.51-.24,1.12-.36,1.73.56-.03,1.07-.07,1.41-.07,1.78,0,3.04.8,3.04,3.21,0,1.99-.24,4.67-.95,6.14-.56,1.17-1.48,1.55-2.77,1.55-.63,0-1.44-.1-2-.24l-.37-2.23c.64.19,1.63.36,2.07.36.56,0,.98-.17,1.26-.73.46-.94.68-2.94.68-4.61,0-1.34-.58-1.53-1.63-1.53-.27,0-.68.03-1.15.07-.66,2.55-1.88,6.51-3.43,8.99l-2.19-.88c1.63-2.21,2.78-5.58,3.38-7.87-.59.07-1.12.14-1.44.19-.48.05-1.34.17-1.87.25l-.19-2.28c.61.05,1.17.02,1.78,0,.53-.02,1.32-.07,2.17-.14.24-1.29.37-2.52.36-3.57l2.49.25Zm6.02,2.01c.98,1.55,2.24,4.39,2.73,5.86l-2.14,1c-.44-1.87-1.63-4.84-2.83-6.34l1.56-.66c-.34-.65-.76-1.46-1.15-2.01l1.34-.56c.42.63,1.02,1.7,1.36,2.33l-.87.37Zm1.54-.56c-.36-.71-.9-1.72-1.37-2.35l1.34-.56c.46.65,1.09,1.72,1.37,2.31l-1.34.59Z"/><path class="e" d="m183.64,37.42h-1.95v10.13c0,1.22-.29,1.82-1.09,2.16-.85.34-2.1.37-3.83.37-.12-.59-.53-1.6-.83-2.14,1.2.07,2.68.05,3.09.05s.54-.12.54-.48v-10.1h-11.22v-2.04h15.29v2.04Zm-11.76,8.48v1.29h-1.97v-7.87h7.19v6.58h-5.23Zm0-4.66v2.72h3.22v-2.72h-3.22Z"/><path class="e" d="m192.54,35.37c.83,1.22,1.73,2.84,2.05,3.94l-1.85.75c-.07-.27-.17-.58-.31-.9-2.24.15-4.55.29-6.28.39l-.17-1.92c.41,0,.85-.02,1.32-.03.48-1.07.95-2.38,1.24-3.42l2.1.42c-.39.99-.85,2.01-1.27,2.91l2.26-.1c-.25-.48-.53-.95-.8-1.39l1.7-.65Zm.85,12.7c0,.88-.17,1.38-.73,1.67-.58.32-1.36.34-2.38.34-.1-.53-.39-1.31-.64-1.78.59.03,1.27.02,1.49,0,.2,0,.27-.05.27-.25v-1.14h-2.55v3.21h-1.87v-9.76h6.4v7.72Zm-4.53-6.05v.88h2.55v-.88h-2.55Zm2.55,3.38v-1h-2.55v1h2.55Zm5.79-3.52c-1.99,0-2.46-.6-2.46-2.46v-5.12h2v2.43c1.14-.44,2.26-.97,3.05-1.41l1.29,1.46c-1.27.61-2.87,1.16-4.34,1.6v1c0,.61.1.68.75.68h1.85c.54,0,.66-.25.73-1.73.41.31,1.24.63,1.78.75-.22,2.18-.75,2.8-2.31,2.8h-2.34Zm2.24,6.36c.58,0,.7-.32.78-2.04.42.31,1.24.61,1.76.75-.22,2.4-.73,3.06-2.36,3.06h-2.41c-1.99,0-2.48-.58-2.48-2.45v-5.34h1.99v2.29c1.2-.49,2.38-1.05,3.19-1.6l1.34,1.48c-1.31.71-2.99,1.33-4.53,1.8v1.36c0,.59.12.68.78.68h1.93Z"/></g></svg>