<?xml version="1.0" encoding="UTF-8"?><svg id="b" xmlns="http://www.w3.org/2000/svg" width="18" height="18" viewBox="0 0 18 18"><defs><style>.d{fill:#232284;}.d,.e{stroke-width:0px;}.e{fill:#fff;}</style></defs><g id="c"><rect class="e" width="18" height="18" rx="4" ry="4"/><path class="d" d="m13.05,13.04c.5.36,1.04.64,1.62.85l-.75,1.43c-.31-.09-.6-.22-.9-.38-.06-.03-.51-.33-1.35-.89-.66.29-1.38.43-2.18.43-1.54,0-2.75-.45-3.62-1.36-.87-.91-1.31-2.18-1.31-3.82s.44-2.91,1.31-3.82,2.06-1.36,3.56-1.36,2.66.46,3.53,1.36,1.31,2.18,1.31,3.82c0,.87-.12,1.63-.36,2.28-.18.5-.47.99-.88,1.46Zm-1.63-1.14c.26-.3.45-.67.58-1.11.13-.43.19-.93.19-1.49,0-1.16-.25-2.02-.77-2.59s-1.18-.86-2-.86-1.49.29-2.01.86c-.51.57-.77,1.44-.77,2.59s.26,2.05.77,2.63c.51.58,1.16.87,1.94.87.29,0,.57-.05.83-.14-.41-.27-.83-.48-1.25-.63l.57-1.16c.67.23,1.3.57,1.91,1.03Z"/></g></svg>